Muli-300-Light.ufo
<glyph name="dollar" format="1">
  <advance width="1175.04"/>
  <unicode hex="0024"/>
  <outline>
    <contour>
      <point x="562.016" y="-188.15" type="line"/>
      <point x="562.016" y="1635.95" type="line"/>
      <point x="689.16" y="1635.95" type="line"/>
      <point x="689.16" y="-188.15" type="line"/>
    </contour>
    <component base="S"/>
  </outline>
</glyph>
<glyph name="percent" format="1">
  <advance width="1683.304"/>
  <unicode hex="0025"/>
  <outline>
    <contour>
      <point x="416.864" y="856.47" type="curve" smooth="yes"/>
      <point x="568.0" y="856.47"/>
      <point x="611.84" y="984.75"/>
      <point x="611.84" y="1122.06" type="curve" smooth="yes"/>
      <point x="611.84" y="1267.27"/>
      <point x="565.84" y="1381.49"/>
      <point x="418.696" y="1381.49" type="curve" smooth="yes"/>
      <point x="266.056" y="1381.49"/>
      <point x="220.056" y="1254.74"/>
      <point x="220.056" y="1116.69" type="curve" smooth="yes"/>
      <point x="220.056" y="972.22"/>
      <point x="265.728" y="856.47"/>
    </contour>
    <contour>
      <point x="413.2" y="749.43" type="curve" smooth="yes"/>
      <point x="191.032" y="749.43"/>
      <point x="86.84" y="911.12"/>
      <point x="86.84" y="1114.9" type="curve" smooth="yes"/>
      <point x="86.84" y="1315.26"/>
      <point x="201.024" y="1486.74"/>
      <point x="420.528" y="1486.74" type="curve" smooth="yes"/>
      <point x="645.528" y="1486.74"/>
      <point x="745.056" y="1326.0"/>
      <point x="745.056" y="1120.27" type="curve" smooth="yes"/>
      <point x="745.056" y="920.07"/>
      <point x="631.704" y="749.43"/>
    </contour>
    <contour>
      <point x="327.704" y="0.0" type="line"/>
      <point x="1239.216" y="1456.0" type="line"/>
      <point x="1373.76" y="1456.0" type="line"/>
      <point x="463.08" y="0.0" type="line"/>
    </contour>
    <contour>
      <point x="1268.272" y="78.88" type="curve" smooth="yes"/>
      <point x="1419.408" y="78.88"/>
      <point x="1465.08" y="207.16"/>
      <point x="1465.08" y="344.47" type="curve" smooth="yes"/>
      <point x="1465.08" y="489.68"/>
      <point x="1420.912" y="603.9"/>
      <point x="1271.936" y="603.9" type="curve" smooth="yes"/>
      <point x="1117.464" y="603.9"/>
      <point x="1073.296" y="475.36"/>
      <point x="1073.296" y="337.31" type="curve" smooth="yes"/>
      <point x="1073.296" y="194.63"/>
      <point x="1117.136" y="78.88"/>
    </contour>
    <contour>
      <point x="1264.608" y="-28.16" type="curve" smooth="yes"/>
      <point x="1044.272" y="-28.16"/>
      <point x="940.08" y="133.84"/>
      <point x="940.08" y="339.1" type="curve" smooth="yes"/>
      <point x="940.08" y="542.73"/>
      <point x="1052.432" y="710.94"/>
      <point x="1271.936" y="710.94" type="curve" smooth="yes"/>
      <point x="1496.936" y="710.94"/>
      <point x="1596.464" y="551.68"/>
      <point x="1596.464" y="344.47" type="curve" smooth="yes"/>
      <point x="1596.464" y="139.21"/>
      <point x="1483.112" y="-28.16"/>
    </contour>
  </outline>
</glyph>
<glyph name="parenleft" format="1">
  <advance width="605.72"/>
  <unicode hex="0028"/>
  <outline>
    <contour>
      <point x="416.16" y="-174.58" type="line"/>
      <point x="261.656" y="61.26"/>
      <point x="147.648" y="353.52"/>
      <point x="147.648" y="661.42" type="curve" smooth="yes"/>
      <point x="147.648" y="982.53"/>
      <point x="245.824" y="1251.21"/>
      <point x="413.656" y="1516.0" type="curve"/>
      <point x="557.552" y="1516.0" type="line"/>
      <point x="391.048" y="1251.37"/>
      <point x="297.544" y="970.85"/>
      <point x="297.544" y="664.79" type="curve" smooth="yes"/>
      <point x="297.544" y="382.31"/>
      <point x="398.552" y="74.47"/>
      <point x="559.384" y="-174.58" type="curve"/>
    </contour>
  </outline>
</glyph>
<glyph name="parenright" format="1">
  <advance width="605.72"/>
  <unicode hex="0029"/>
  <outline>
    <contour>
      <point x="190.56" y="1496.0" type="line"/>
      <point x="345.064" y="1260.16"/>
      <point x="457.24" y="967.9"/>
      <point x="457.24" y="660.0" type="curve" smooth="yes"/>
      <point x="457.24" y="338.89"/>
      <point x="360.896" y="70.21"/>
      <point x="193.064" y="-194.58" type="curve"/>
      <point x="49.168" y="-194.58" type="line"/>
      <point x="215.672" y="70.05"/>
      <point x="309.176" y="350.57"/>
      <point x="309.176" y="656.63" type="curve" smooth="yes"/>
      <point x="309.176" y="939.11"/>
      <point x="208.168" y="1246.95"/>
      <point x="47.336" y="1496.0" type="curve"/>
    </contour>
  </outline>
</glyph>
<glyph name="asterisk" format="1">
  <advance width="1141.944"/>
  <unicode hex="002A"/>
  <outline>
    <contour>
      <point x="740.624" y="748.29" type="line"/>
      <point x="582.784" y="1018.98" type="line"/>
      <point x="430.44" y="757.24" type="line"/>
      <point x="315.896" y="825.33" type="line"/>
      <point x="497.752" y="1067.28" type="line"/>
      <point x="231.744" y="1146.22" type="line"/>
      <point x="269.608" y="1269.89" type="line"/>
      <point x="529.264" y="1151.26" type="line"/>
      <point x="499.264" y="1457.79" type="line"/>
      <point x="635.16" y="1457.79" type="line"/>
      <point x="628.976" y="1151.26" type="line"/>
      <point x="857.488" y="1269.89" type="line"/>
      <point x="919.168" y="1146.22" type="line"/>
      <point x="664.152" y="1067.28" type="line"/>
      <point x="858.832" y="813.59" type="line"/>
    </contour>
  </outline>
</glyph>
<glyph name="plus" format="1">
  <advance width="1165.232"/>
  <unicode hex="002B"/>
  <outline>
    <contour>
      <point x="514.168" y="117.8" type="line"/>
      <point x="514.168" y="543.44" type="line"/>
      <point x="126.84" y="543.44" type="line"/>
      <point x="126.84" y="674.21" type="line"/>
      <point x="512.504" y="674.21" type="line"/>
      <point x="512.504" y="1077.37" type="line"/>
      <point x="651.896" y="1077.37" type="line"/>
      <point x="651.896" y="674.21" type="line"/>
      <point x="1040.224" y="674.21" type="line"/>
      <point x="1040.224" y="543.44" type="line"/>
      <point x="652.728" y="543.44" type="line"/>
      <point x="652.728" y="117.8" type="line"/>
    </contour>
  </outline>
</glyph>
<glyph name="hyphen" format="1">
  <advance width="646.56"/>
  <unicode hex="002D"/>
  <outline>
    <contour>
      <point x="66.992" y="500.59" type="line"/>
      <point x="66.992" y="622.52" type="line"/>
      <point x="579.568" y="622.52" type="line"/>
      <point x="579.568" y="500.59" type="line"/>
    </contour>
  </outline>
</glyph>
<glyph name="period" format="1">
  <advance width="545.496"/>
  <unicode hex="002E"/>
  <outline>
    <contour>
      <point x="172.128" y="0.0" type="line"/>
      <point x="172.128" y="201.14" type="line"/>
      <point x="377.848" y="201.14" type="line"/>
      <point x="377.848" y="0.0" type="line"/>
    </contour>
  </outline>
</glyph>
<glyph name="zero" format="1">
  <advance width="1209.04"/>
  <unicode hex="0030"/>
  <outline>
    <contour>
      <point x="613.184" y="114.19" type="curve" smooth="yes"/>
      <point x="844.656" y="114.19"/>
      <point x="913.984" y="378.62"/>
      <point x="913.984" y="727.26" type="curve" smooth="yes"/>
      <point x="913.984" y="1091.39"/>
      <point x="841.992" y="1344.02"/>
      <point x="611.352" y="1344.02" type="curve" smooth="yes"/>
      <point x="377.376" y="1344.02"/>
      <point x="287.728" y="1090.6"/>
      <point x="287.728" y="729.05" type="curve" smooth="yes"/>
      <point x="287.728" y="380.41"/>
      <point x="379.208" y="114.19"/>
    </contour>
    <contour>
      <point x="611.016" y="-23.0" type="curve" smooth="yes"/>
      <point x="282.848" y="-23.0"/>
      <point x="124.0" y="290.37"/>
      <point x="124.0" y="728.26" type="curve" smooth="yes"/>
      <point x="124.0" y="1194.26"/>
      <point x="282.68" y="1483.0"/>
      <point x="613.016" y="1483.0" type="curve" smooth="yes"/>
      <point x="944.184" y="1483.0"/>
      <point x="1085.04" y="1194.58"/>
      <point x="1085.04" y="726.47" type="curve" smooth="yes"/>
      <point x="1085.04" y="287.0"/>
      <point x="943.352" y="-23.0"/>
    </contour>
  </outline>
</glyph>
<glyph name="one" format="1">
  <advance width="1209.04"/>
  <unicode hex="0031"/>
  <outline>
    <contour>
      <point x="276.344" y="0.0" type="line"/>
      <point x="276.344" y="120.4" type="line"/>
      <point x="559.496" y="120.4" type="line"/>
      <point x="559.496" y="1274.23" type="line"/>
      <point x="466.512" y="1221.33"/>
      <point x="359.344" y="1179.91"/>
      <point x="258.336" y="1139.33" type="curve"/>
      <point x="258.336" y="1284.94" type="line"/>
      <point x="358.84" y="1321.73"/>
      <point x="519.816" y="1400.63"/>
      <point x="608.816" y="1456.0" type="curve"/>
      <point x="717.224" y="1456.0" type="line"/>
      <point x="717.224" y="122.77" type="line"/>
      <point x="982.888" y="122.77" type="line"/>
      <point x="982.888" y="0.0" type="line"/>
    </contour>
  </outline>
</glyph>
<glyph name="two" format="1">
  <advance width="1209.04"/>
  <unicode hex="0032"/>
  <outline>
    <contour>
      <point x="595.504" y="1482.79" type="curve" smooth="yes"/>
      <point x="859.9004" y="1482.79"/>
      <point x="1044.91384" y="1270.4705"/>
      <point x="1028.27384" y="1039.9138" type="curve" smooth="yes"/>
      <point x="1013.29784" y="891.38471"/>
      <point x="973.620568" y="842.78252"/>
      <point x="727.650328" y="557.3625" type="curve"/>
      <point x="846.834328" y="678.43"/>
      <point x="396.568" y="136.35"/>
      <point x="396.568" y="136.35" type="curve"/>
      <point x="1026.008" y="136.35" type="line"/>
      <point x="1026.008" y="0.0" type="line"/>
      <point x="219.648" y="0.0" type="line"/>
      <point x="219.648" y="142.2" type="line"/>
      <point x="131.872" y="72.68"/>
      <point x="780.950384" y="834.7725"/>
      <point x="669.982384" y="711.23625" type="curve"/>
      <point x="850.861144" y="931.20458"/>
      <point x="850.66964" y="938.8097"/>
      <point x="869.80564" y="1018.0232" type="curve" smooth="yes"/>
      <point x="886.44564" y="1175.8407"/>
      <point x="792.195944" y="1345.81"/>
      <point x="590.16" y="1345.81" type="curve" smooth="yes"/>
      <point x="362.528" y="1345.81"/>
      <point x="234.32" y="1219.6"/>
      <point x="235.152" y="1219.6" type="curve"/>
      <point x="188.128" y="1343.37" type="line"/>
      <point x="188.128" y="1343.37"/>
      <point x="336.824" y="1482.79"/>
    </contour>
  </outline>
</glyph>
<glyph name="three" format="1">
  <advance width="1209.04"/>
  <unicode hex="0033"/>
  <outline>
    <contour>
      <point x="555.376" y="-23.0" type="curve" smooth="yes"/>
      <point x="374.464" y="-23.0"/>
      <point x="207.472" y="58.41"/>
      <point x="185.488" y="70.94" type="curve"/>
      <point x="225.512" y="200.24" type="line"/>
      <point x="298.792" y="162.65"/>
      <point x="419.32" y="114.19"/>
      <point x="562.344" y="114.19" type="curve" smooth="yes"/>
      <point x="750.84" y="114.19"/>
      <point x="899.64" y="219.51"/>
      <point x="899.64" y="401.31" type="curve" smooth="yes"/>
      <point x="899.64" y="612.48"/>
      <point x="749.8" y="698.8"/>
      <point x="507.968" y="699.96" type="curve" smooth="yes"/>
      <point x="431.976" y="699.75" type="line"/>
      <point x="429.976" y="834.94" type="line"/>
      <point x="488.984" y="834.94" type="line" smooth="yes"/>
      <point x="708.84" y="834.94"/>
      <point x="868.8" y="897.31"/>
      <point x="868.8" y="1111.53" type="curve" smooth="yes"/>
      <point x="868.8" y="1270.91"/>
      <point x="719.48" y="1349.39"/>
      <point x="556.008" y="1349.39" type="curve" smooth="yes"/>
      <point x="391.84" y="1349.39"/>
      <point x="278.52" y="1281.34"/>
      <point x="200.872" y="1203.59" type="curve"/>
      <point x="125.848" y="1302.2" type="line"/>
      <point x="215.048" y="1424.26"/>
      <point x="388.328" y="1483.0"/>
      <point x="573.352" y="1483.0" type="curve" smooth="yes"/>
      <point x="795.696" y="1483.0"/>
      <point x="1020.2" y="1351.84"/>
      <point x="1020.2" y="1112.95" type="curve" smooth="yes"/>
      <point x="1020.2" y="927.94"/>
      <point x="921.712" y="818.48"/>
      <point x="760.192" y="766.79" type="curve"/>
      <point x="946.032" y="725.42"/>
      <point x="1057.864" y="597.53"/>
      <point x="1057.864" y="398.47" type="curve" smooth="yes"/>
      <point x="1057.864" y="138.0"/>
      <point x="840.192" y="-23.0"/>
    </contour>
  </outline>
</glyph>
<glyph name="five" format="1">
  <advance width="1209.04"/>
  <unicode hex="0035"/>
  <outline>
    <contour>
      <point x="601.68" y="-23.0" type="curve" smooth="yes"/>
      <point x="442.344" y="-23.0"/>
      <point x="283.336" y="14.94"/>
      <point x="167.496" y="131.62" type="curve"/>
      <point x="237.536" y="249.97" type="line"/>
      <point x="337.2" y="143.92"/>
      <point x="473.024" y="114.19"/>
      <point x="600.344" y="114.19" type="curve" smooth="yes"/>
      <point x="836.448" y="114.19"/>
      <point x="922.976" y="286.79"/>
      <point x="922.976" y="471.42" type="curve" smooth="yes"/>
      <point x="922.976" y="650.01"/>
      <point x="822.328" y="802.07"/>
      <point x="617.048" y="802.07" type="curve" smooth="yes"/>
      <point x="520.4" y="802.07"/>
      <point x="398.936" y="754.43"/>
      <point x="355.608" y="686.32" type="curve"/>
      <point x="215.536" y="681.31" type="line"/>
      <point x="215.536" y="1456.0" type="line"/>
      <point x="988.392" y="1456.0" type="line"/>
      <point x="988.392" y="1317.02" type="line"/>
      <point x="370.08" y="1317.02" type="line"/>
      <point x="354.416" y="843.31" type="line"/>
      <point x="417.912" y="903.78"/>
      <point x="524.24" y="941.89"/>
      <point x="615.248" y="941.89" type="curve" smooth="yes"/>
      <point x="918.36" y="941.89"/>
      <point x="1085.872" y="732.89"/>
      <point x="1085.872" y="467.42" type="curve" smooth="yes"/>
      <point x="1085.872" y="203.49"/>
      <point x="934.8" y="-23.0"/>
    </contour>
  </outline>
</glyph>
<glyph name="six" format="1">
  <advance width="1209.04"/>
  <unicode hex="0036"/>
  <outline>
    <contour>
      <point x="638.864" y="-23.0" type="curve" smooth="yes"/>
      <point x="291.024" y="-23.0"/>
      <point x="131.68" y="268.79"/>
      <point x="131.68" y="691.63" type="curve" smooth="yes"/>
      <point x="131.68" y="1124.42"/>
      <point x="309.696" y="1483.0"/>
      <point x="688.2" y="1483.0" type="curve" smooth="yes"/>
      <point x="830.704" y="1483.0"/>
      <point x="946.544" y="1432.84"/>
      <point x="1017.392" y="1373.9" type="curve"/>
      <point x="961.208" y="1260.13" type="line"/>
      <point x="898.192" y="1311.02"/>
      <point x="801.528" y="1344.02"/>
      <point x="690.2" y="1344.02" type="curve" smooth="yes"/>
      <point x="413.272" y="1344.02"/>
      <point x="309.592" y="1072.78"/>
      <point x="297.248" y="782.5" type="curve" smooth="yes"/>
      <point x="296.08" y="764.87"/>
      <point x="296.912" y="747.03"/>
      <point x="297.744" y="728.4" type="curve"/>
      <point x="356.592" y="825.29"/>
      <point x="462.76" y="929.36"/>
      <point x="682.184" y="929.36" type="curve" smooth="yes"/>
      <point x="919.384" y="929.36"/>
      <point x="1108.048" y="748.52"/>
      <point x="1108.048" y="463.26" type="curve" smooth="yes"/>
      <point x="1108.048" y="187.42"/>
      <point x="932.704" y="-23.0"/>
    </contour>
    <contour>
      <point x="646.688" y="114.19" type="curve" smooth="yes"/>
      <point x="838.992" y="114.19"/>
      <point x="943.32" y="260.67"/>
      <point x="943.32" y="456.68" type="curve" smooth="yes"/>
      <point x="943.32" y="650.9"/>
      <point x="845.0" y="799.38"/>
      <point x="633.872" y="799.38" type="curve" smooth="yes"/>
      <point x="454.216" y="799.38"/>
      <point x="314.576" y="683.75"/>
      <point x="314.576" y="517.96" type="curve" smooth="yes"/>
      <point x="314.576" y="266.94"/>
      <point x="412.264" y="114.19"/>
    </contour>
  </outline>
</glyph>
<glyph name="seven" format="1">
  <advance width="1209.04"/>
  <unicode hex="0037"/>
  <outline>
    <contour>
      <point x="365.968" y="0.0" type="line"/>
      <point x="837.352" y="1319.65" type="line"/>
      <point x="176.648" y="1319.65" type="line"/>
      <point x="176.648" y="1456.0" type="line"/>
      <point x="1011.928" y="1456.0" type="line"/>
      <point x="1011.928" y="1338.23" type="line"/>
      <point x="538.864" y="0.0" type="line"/>
    </contour>
  </outline>
</glyph>
<glyph name="eight" format="1">
  <advance width="1207.376"/>
  <unicode hex="0038"/>
  <outline>
    <contour>
      <point x="602.108" y="-23.0" type="curve" smooth="yes"/>
      <point x="358.916" y="-23.0"/>
      <point x="131.756" y="118.05"/>
      <point x="131.756" y="372.31" type="curve" smooth="yes"/>
      <point x="131.756" y="559.79"/>
      <point x="241.748" y="701.74"/>
      <point x="446.548" y="762.21" type="curve"/>
      <point x="269.58" y="817.89"/>
      <point x="167.252" y="941.21"/>
      <point x="167.252" y="1115.32" type="curve" smooth="yes"/>
      <point x="167.252" y="1345.58"/>
      <point x="362.42" y="1483.0"/>
      <point x="603.436" y="1483.0" type="curve" smooth="yes"/>
      <point x="841.636" y="1483.0"/>
      <point x="1042.788" y="1346.74"/>
      <point x="1042.788" y="1117.06" type="curve" smooth="yes"/>
      <point x="1042.788" y="943.74"/>
      <point x="939.132" y="818.63"/>
      <point x="762.828" y="762.79" type="curve"/>
      <point x="969.284" y="700.16"/>
      <point x="1075.62" y="561.32"/>
      <point x="1075.62" y="372.47" type="curve" smooth="yes"/>
      <point x="1075.62" y="117.42"/>
      <point x="852.612" y="-23.0"/>
    </contour>
    <contour>
      <point x="602.772" y="112.4" type="curve" smooth="yes"/>
      <point x="786.58" y="112.4"/>
      <point x="918.724" y="208.25"/>
      <point x="918.724" y="385.31" type="curve" smooth="yes"/>
      <point x="918.724" y="555.64"/>
      <point x="789.572" y="651.74"/>
      <point x="602.276" y="689.32" type="curve"/>
      <point x="418.804" y="651.95"/>
      <point x="288.82" y="555.11"/>
      <point x="288.82" y="385.89" type="curve" smooth="yes"/>
      <point x="288.82" y="207.3"/>
      <point x="419.796" y="112.4"/>
    </contour>
    <contour>
      <point x="603.604" y="833.52" type="curve"/>
      <point x="789.068" y="867.94"/>
      <point x="891.388" y="958.31"/>
      <point x="891.388" y="1109.95" type="curve" smooth="yes"/>
      <point x="891.388" y="1270.28"/>
      <point x="758.412" y="1354.76"/>
      <point x="604.436" y="1354.76" type="curve" smooth="yes"/>
      <point x="453.62" y="1354.76"/>
      <point x="318.484" y="1270.7"/>
      <point x="318.484" y="1112.48" type="curve" smooth="yes"/>
      <point x="318.484" y="959.89"/>
      <point x="420.804" y="868.52"/>
    </contour>
  </outline>
</glyph>
<glyph name="less" format="1">
  <advance width="1168.824"/>
  <unicode hex="003C"/>
  <outline>
    <contour>
      <point x="950.824" y="83.17" type="line"/>
      <point x="81.376" y="546.22" type="line"/>
      <point x="81.376" y="632.16" type="line"/>
      <point x="954.824" y="1049.72" type="line"/>
      <point x="954.824" y="906.11" type="line"/>
      <point x="261.304" y="583.53" type="line"/>
      <point x="950.824" y="226.36" type="line"/>
    </contour>
  </outline>
</glyph>
<glyph name="equal" format="1">
  <advance width="1186.52"/>
  <unicode hex="003D"/>
  <outline>
    <contour>
      <point x="147.544" y="308.17" type="line"/>
      <point x="147.544" y="436.52" type="line"/>
      <point x="1042.64" y="436.52" type="line"/>
      <point x="1042.64" y="308.17" type="line"/>
    </contour>
    <contour>
      <point x="145.712" y="691.48" type="line"/>
      <point x="145.712" y="820.83" type="line"/>
      <point x="1040.64" y="820.83" type="line"/>
      <point x="1040.64" y="691.48" type="line"/>
    </contour>
  </outline>
</glyph>
<glyph name="question" format="1">
  <advance width="1079.128"/>
  <unicode hex="003F"/>
  <outline>
    <contour>
      <point x="361.8" y="362.04" type="line"/>
      <point x="361.8" y="507.2" type="line" smooth="yes"/>
      <point x="361.8" y="748.3"/>
      <point x="751.608" y="880.99"/>
      <point x="751.608" y="1126.95" type="curve" smooth="yes"/>
      <point x="751.608" y="1284.12"/>
      <point x="628.296" y="1346.02"/>
      <point x="475.488" y="1346.02" type="curve" smooth="yes"/>
      <point x="351.992" y="1346.02"/>
      <point x="240.144" y="1295.65"/>
      <point x="192.976" y="1269.07" type="curve"/>
      <point x="192.976" y="1409.42" type="line"/>
      <point x="301.416" y="1461.8"/>
      <point x="427.744" y="1476.84"/>
      <point x="494.824" y="1476.84" type="curve" smooth="yes"/>
      <point x="742.48" y="1476.84"/>
      <point x="906.84" y="1363.42"/>
      <point x="906.84" y="1133.95" type="curve" smooth="yes"/>
      <point x="906.84" y="835.250194427"/>
      <point x="484.016" y="699.46"/>
      <point x="484.016" y="477.79" type="curve" smooth="yes"/>
      <point x="484.016" y="362.04" type="line"/>
    </contour>
    <contour>
      <point x="327.8" y="-12.53" type="line"/>
      <point x="327.8" y="188.61" type="line"/>
      <point x="531.688" y="188.61" type="line"/>
      <point x="531.688" y="-12.53" type="line"/>
    </contour>
  </outline>
</glyph>
<glyph name="at" format="1">
  <advance width="1742.712"/>
  <unicode hex="0040"/>
  <outline>
    <contour>
      <point x="916.184" y="-81.1" type="curve" smooth="yes"/>
      <point x="1138.84" y="-81.1"/>
      <point x="1377.984" y="-12.36"/>
      <point x="1493.848" y="133.49" type="curve"/>
      <point x="1429.504" y="197.95" type="line"/>
      <point x="1309.816" y="76.52"/>
      <point x="1101.512" y="23.36"/>
      <point x="919.528" y="23.36" type="curve" smooth="yes"/>
      <point x="540.728" y="23.36"/>
      <point x="236.88" y="258.95"/>
      <point x="236.88" y="687.69" type="curve" smooth="yes"/>
      <point x="236.88" y="1105.84"/>
      <point x="553.704" y="1370.75"/>
      <point x="913.04" y="1370.75" type="curve" smooth="yes"/>
      <point x="1268.992" y="1370.75"/>
      <point x="1521.016" y="1123.2"/>
      <point x="1521.016" y="804.37" type="curve" smooth="yes"/>
      <point x="1521.016" y="577.22"/>
      <point x="1397.0" y="352.52"/>
      <point x="1243.216" y="352.52" type="curve" smooth="yes"/>
      <point x="1183.728" y="352.52"/>
      <point x="1161.232" y="382.25"/>
      <point x="1161.232" y="433.36" type="curve" smooth="yes"/>
      <point x="1161.232" y="496.79"/>
      <point x="1178.72" y="547.32"/>
      <point x="1187.728" y="582.3" type="curve" smooth="yes"/>
      <point x="1304.544" y="1111.63" type="line"/>
      <point x="1184.648" y="1111.63" type="line"/>
      <point x="1156.32" y="992.94" type="line"/>
      <point x="1132.648" y="1102.0"/>
      <point x="1023.008" y="1144.16"/>
      <point x="929.168" y="1144.16" type="curve" smooth="yes"/>
      <point x="701.192" y="1144.16"/>
      <point x="497.488" y="891.04"/>
      <point x="481.0" y="625.79" type="curve" smooth="yes"/>
      <point x="466.344" y="397.69"/>
      <point x="625.192" y="272.32"/>
      <point x="778.528" y="272.32" type="curve" smooth="yes"/>
      <point x="890.728" y="272.32"/>
      <point x="1017.04" y="352.79"/>
      <point x="1066.864" y="454.05" type="curve"/>
      <point x="1066.864" y="300.46"/>
      <point x="1121.216" y="252.21"/>
      <point x="1245.728" y="252.21" type="curve" smooth="yes"/>
      <point x="1436.072" y="252.21"/>
      <point x="1634.88" y="477.51"/>
      <point x="1634.88" y="799.37" type="curve" smooth="yes"/>
      <point x="1634.88" y="1191.84"/>
      <point x="1320.208" y="1476.63"/>
      <point x="917.864" y="1476.63" type="curve" smooth="yes"/>
      <point x="494.0" y="1476.63"/>
      <point x="107.832" y="1171.42"/>
      <point x="107.832" y="689.48" type="curve" smooth="yes"/>
      <point x="107.832" y="212.11"/>
      <point x="467.0" y="-81.1"/>
    </contour>
    <contour>
      <point x="787.544" y="388.09" type="curve" smooth="yes"/>
      <point x="679.232" y="388.09"/>
      <point x="608.576" y="470.57"/>
      <point x="608.576" y="591.21" type="curve" smooth="yes"/>
      <point x="608.576" y="785.06"/>
      <point x="758.2" y="1043.55"/>
      <point x="936.016" y="1043.55" type="curve" smooth="yes"/>
      <point x="1049.656" y="1043.55"/>
      <point x="1107.152" y="946.8"/>
      <point x="1107.152" y="829.74" type="curve" smooth="yes"/>
      <point x="1107.152" y="610.89"/>
      <point x="952.36" y="388.09"/>
    </contour>
  </outline>
</glyph>
<glyph name="B" format="1">
  <advance width="1343.848"/>
  <unicode hex="0042"/>
  <outline>
    <contour>
      <point x="199.328" y="0.0" type="line"/>
      <point x="199.328" y="1456.0" type="line"/>
      <point x="547.696" y="1456.0" type="line" smooth="yes"/>
      <point x="825.512" y="1456.0"/>
      <point x="1152.024" y="1429.0"/>
      <point x="1152.024" y="1123.8" type="curve" smooth="yes"/>
      <point x="1152.024" y="958.79"/>
      <point x="1054.72" y="823.89"/>
      <point x="872.912" y="794.69" type="curve"/>
      <point x="1080.728" y="767.59"/>
      <point x="1222.688" y="639.91"/>
      <point x="1222.688" y="433.69" type="curve" smooth="yes"/>
      <point x="1222.688" y="203.16"/>
      <point x="1047.192" y="0.0"/>
      <point x="710.84" y="0.0" type="curve" smooth="yes"/>
    </contour>
    <contour>
      <point x="357.224" y="138.98" type="line"/>
      <point x="680.664" y="138.98" type="line" smooth="yes"/>
      <point x="926.8" y="138.98"/>
      <point x="1057.12" y="253.15"/>
      <point x="1057.12" y="434.74" type="curve" smooth="yes"/>
      <point x="1057.12" y="650.33"/>
      <point x="925.152" y="713.07"/>
      <point x="638.52" y="713.07" type="curve" smooth="yes"/>
      <point x="357.224" y="713.07" type="line"/>
    </contour>
    <contour>
      <point x="357.056" y="850.21" type="line"/>
      <point x="604.536" y="850.21" type="line" smooth="yes"/>
      <point x="810.152" y="850.21"/>
      <point x="988.456" y="897.79"/>
      <point x="988.456" y="1099.96" type="curve" smooth="yes"/>
      <point x="988.456" y="1300.92"/>
      <point x="821.824" y="1317.02"/>
      <point x="604.336" y="1317.02" type="curve" smooth="yes"/>
      <point x="357.056" y="1317.02" type="line"/>
    </contour>
  </outline>
</glyph>
<glyph name="F" format="1">
  <advance width="1095.032"/>
  <unicode hex="0046"/>
  <outline>
    <contour>
      <point x="199.328" y="0.0" type="line"/>
      <point x="199.328" y="1456.0" type="line"/>
      <point x="1014.208" y="1456.0" type="line"/>
      <point x="1014.208" y="1317.02" type="line"/>
      <point x="357.056" y="1317.02" type="line"/>
      <point x="357.056" y="861.9" type="line"/>
      <point x="965.216" y="861.9" type="line"/>
      <point x="965.216" y="723.71" type="line"/>
      <point x="357.056" y="723.71" type="line"/>
      <point x="357.056" y="0.0" type="line"/>
    </contour>
  </outline>
</glyph>
<glyph name="I" format="1">
  <advance width="585.504"/>
  <unicode hex="0049"/>
  <outline>
    <contour>
      <point x="213.472" y="0.0" type="line"/>
      <point x="213.472" y="1456.0" type="line"/>
      <point x="371.2" y="1456.0" type="line"/>
      <point x="371.2" y="0.0" type="line"/>
    </contour>
  </outline>
</glyph>
<glyph name="J" format="1">
  <advance width="552.464"/>
  <unicode hex="004A"/>
  <outline>
    <contour>
      <point x="56.064" y="-329.21" type="curve" smooth="yes"/>
      <point x="-62.248" y="-329.21"/>
      <point x="-158.92" y="-291.31"/>
      <point x="-150.176" y="-291.48" type="curve"/>
      <point x="-133.824" y="-158.39" type="line"/>
      <point x="-142.584" y="-156.96"/>
      <point x="-64.088" y="-191.44"/>
      <point x="43.376" y="-191.44" type="curve" smooth="yes"/>
      <point x="176.888" y="-191.44"/>
      <point x="193.744" y="-90.49"/>
      <point x="193.744" y="126.32" type="curve" smooth="yes"/>
      <point x="193.744" y="1456.0" type="line"/>
      <point x="351.472" y="1456.0" type="line"/>
      <point x="351.472" y="113.84" type="line" smooth="yes"/>
      <point x="351.472" y="-186.53"/>
      <point x="259.432" y="-329.21"/>
    </contour>
  </outline>
</glyph>
<glyph name="P" format="1">
  <advance width="1232.376"/>
  <unicode hex="0050"/>
  <outline>
    <contour>
      <point x="199.328" y="0.0" type="line"/>
      <point x="199.328" y="1456.0" type="line"/>
      <point x="617.992" y="1456.0" type="line" smooth="yes"/>
      <point x="956.496" y="1456.0"/>
      <point x="1162.544" y="1377.83"/>
      <point x="1162.544" y="1067.27" type="curve" smooth="yes"/>
      <point x="1162.544" y="767.59"/>
      <point x="946.88" y="676.96"/>
      <point x="654.008" y="676.96" type="curve" smooth="yes"/>
      <point x="357.056" y="676.96" type="line"/>
      <point x="357.056" y="0.0" type="line"/>
    </contour>
    <contour>
      <point x="357.056" y="814.15" type="line"/>
      <point x="653.672" y="814.15" type="line" smooth="yes"/>
      <point x="879.976" y="814.15"/>
      <point x="1008.472" y="864.47"/>
      <point x="1008.472" y="1065.27" type="curve" smooth="yes"/>
      <point x="1008.472" y="1272.22"/>
      <point x="879.632" y="1318.6"/>
      <point x="619.664" y="1318.6" type="curve" smooth="yes"/>
      <point x="357.056" y="1318.6" type="line"/>
    </contour>
  </outline>
</glyph>
<glyph name="T" format="1">
  <advance width="1124.536"/>
  <unicode hex="0054"/>
  <outline>
    <contour>
      <point x="481.32" y="0.0" type="line"/>
      <point x="481.32" y="1317.02" type="line"/>
      <point x="9.168" y="1317.02" type="line"/>
      <point x="9.168" y="1456.0" type="line"/>
      <point x="1115.368" y="1456.0" type="line"/>
      <point x="1115.368" y="1317.02" type="line"/>
      <point x="639.048" y="1317.02" type="line"/>
      <point x="639.048" y="0.0" type="line"/>
    </contour>
  </outline>
</glyph>
<glyph name="V" format="1">
  <advance width="1271.744"/>
  <unicode hex="0056"/>
  <outline>
    <contour>
      <point x="550.68" y="0.0" type="line"/>
      <point x="10.504" y="1456.0" type="line"/>
      <point x="187.24" y="1456.0" type="line"/>
      <point x="603.664" y="287.39" type="line"/>
      <point x="640.04" y="171.59" type="line"/>
      <point x="679.08" y="289.97" type="line"/>
      <point x="1096.008" y="1456.0" type="line"/>
      <point x="1261.24" y="1456.0" type="line"/>
      <point x="724.896" y="0.0" type="line"/>
    </contour>
  </outline>
</glyph>
<glyph name="W" format="1">
  <advance width="1916.448"/>
  <unicode hex="0057"/>
  <outline>
    <contour>
      <point x="415.008" y="0.0" type="line"/>
      <point x="24.992" y="1456.0" type="line"/>
      <point x="198.72" y="1456.0" type="line"/>
      <point x="479.344" y="334.55" type="line"/>
      <point x="511.712" y="170.86" type="line"/>
      <point x="550.416" y="322.81" type="line"/>
      <point x="883.032" y="1456.0" type="line"/>
      <point x="1051.912" y="1456.0" type="line"/>
      <point x="1383.2" y="329.92" type="line"/>
      <point x="1422.072" y="177.6" type="line"/>
      <point x="1447.608" y="314.81" type="line"/>
      <point x="1729.392" y="1456.0" type="line"/>
      <point x="1891.456" y="1456.0" type="line"/>
      <point x="1515.104" y="0.0" type="line"/>
      <point x="1325.872" y="0.0" type="line"/>
      <point x="965.552" y="1248.3" type="line"/>
      <point x="600.24" y="0.0" type="line"/>
    </contour>
  </outline>
</glyph>
<glyph name="X" format="1">
  <advance width="1157.992"/>
  <unicode hex="0058"/>
  <outline>
    <contour>
      <point x="986.384" y="0.0" type="line"/>
      <point x="573.416" y="618.18" type="line"/>
      <point x="170.6" y="0.0" type="line"/>
      <point x="-5.648" y="0.0" type="line"/>
      <point x="483.048" y="744.16" type="line"/>
      <point x="-0.96" y="1456.0" type="line"/>
      <point x="185.456" y="1456.0" type="line"/>
      <point x="576.424" y="873.98" type="line"/>
      <point x="960.408" y="1456.0" type="line"/>
      <point x="1135.984" y="1456.0" type="line"/>
      <point x="664.96" y="750.58" type="line"/>
      <point x="1166.304" y="0.0" type="line"/>
    </contour>
  </outline>
</glyph>
<glyph name="Y" format="1">
  <advance width="1188.392"/>
  <unicode hex="0059"/>
  <outline>
    <contour>
      <point x="510.664" y="0.0" type="line"/>
      <point x="510.664" y="581.11" type="line"/>
      <point x="17.648" y="1456.0" type="line"/>
      <point x="189.056" y="1456.0" type="line"/>
      <point x="593.528" y="719.14" type="line"/>
      <point x="1002.496" y="1456.0" type="line"/>
      <point x="1170.744" y="1456.0" type="line"/>
      <point x="668.392" y="584.9" type="line"/>
      <point x="668.392" y="0.0" type="line"/>
    </contour>
  </outline>
</glyph>
<glyph name="Z" format="1">
  <advance width="1164.024"/>
  <unicode hex="005A"/>
  <outline>
    <contour>
      <point x="101.648" y="0.0" type="line"/>
      <point x="101.648" y="85.25" type="line"/>
      <point x="867.432" y="1317.02" type="line"/>
      <point x="135.976" y="1317.02" type="line"/>
      <point x="135.976" y="1456.0" type="line"/>
      <point x="1079.52" y="1456.0" type="line"/>
      <point x="1079.52" y="1374.75" type="line"/>
      <point x="310.568" y="138.98" type="line"/>
      <point x="1070.192" y="138.98" type="line"/>
      <point x="1070.192" y="0.0" type="line"/>
    </contour>
  </outline>
</glyph>
<glyph name="bracketleft" format="1">
  <advance width="681.128"/>
  <unicode hex="005B"/>
  <outline>
    <contour>
      <point x="188.136" y="-267.66" type="line"/>
      <point x="188.136" y="1449.46" type="line"/>
      <point x="592.48" y="1449.46" type="line"/>
      <point x="592.48" y="1337.48" type="line"/>
      <point x="336.368" y="1337.48" type="line"/>
      <point x="336.368" y="-155.68" type="line"/>
      <point x="593.48" y="-155.68" type="line"/>
      <point x="593.48" y="-267.66" type="line"/>
    </contour>
  </outline>
</glyph>
<glyph name="backslash" format="1">
  <advance width="759.128"/>
  <unicode hex="005C"/>
  <outline>
    <contour>
      <point x="567.992" y="13.08" type="line"/>
      <point x="44.384" y="1456.0" type="line"/>
      <point x="196.288" y="1456.0" type="line"/>
      <point x="717.728" y="13.08" type="line"/>
    </contour>
  </outline>
</glyph>
<glyph name="asciicircum" format="1">
  <advance width="1665.432"/>
  <unicode hex="005E"/>
  <outline>
    <contour>
      <point x="319.08" y="579.17" type="line"/>
      <point x="783.944" y="1456.0" type="line"/>
      <point x="873.656" y="1456.0" type="line"/>
      <point x="1346.352" y="579.17" type="line"/>
      <point x="1208.28" y="579.17" type="line"/>
      <point x="827.632" y="1299.98" type="line"/>
      <point x="459.32" y="579.17" type="line"/>
    </contour>
  </outline>
</glyph>
<glyph name="underscore" format="1">
  <advance width="902.736"/>
  <unicode hex="005F"/>
  <outline>
    <contour>
      <point x="-1.008" y="-274.9" type="line"/>
      <point x="-1.008" y="-156.92" type="line"/>
      <point x="903.744" y="-156.92" type="line"/>
      <point x="903.744" y="-274.9" type="line"/>
    </contour>
  </outline>
</glyph>
<glyph name="grave" format="1">
  <advance width="588.68"/>
  <unicode hex="0060"/>
  <outline>
    <contour>
      <point x="407.288" y="1178.74" type="line"/>
      <point x="79.44" y="1669.16" type="line"/>
      <point x="276.184" y="1669.16" type="line"/>
      <point x="520.528" y="1178.74" type="line"/>
    </contour>
  </outline>
</glyph>
<glyph name="b" format="1">
  <advance width="1263.184"/>
  <unicode hex="0062"/>
  <outline>
    <contour>
      <point x="709.496" y="-21.21" type="curve" smooth="yes"/>
      <point x="512.696" y="-21.21"/>
      <point x="386.368" y="83.64"/>
      <point x="337.536" y="196.86" type="curve"/>
      <point x="337.536" y="0.0" type="line"/>
      <point x="182.64" y="0.0" type="line"/>
      <point x="180.48" y="-35.6"/>
      <point x="188.808" y="235.84"/>
      <point x="188.808" y="270.21" type="curve" smooth="yes"/>
      <point x="188.808" y="1497.01" type="line"/>
      <point x="341.368" y="1497.01" type="line"/>
      <point x="341.368" y="844.78" type="line"/>
      <point x="414.328" y="973.75"/>
      <point x="548.136" y="1052.0"/>
      <point x="702.176" y="1052.0" type="curve" smooth="yes"/>
      <point x="974.856" y="1052.0"/>
      <point x="1166.344" y="863.22"/>
      <point x="1166.344" y="538.9" type="curve" smooth="yes"/>
      <point x="1166.344" y="186.05"/>
      <point x="986.152" y="-21.21"/>
    </contour>
    <contour>
      <point x="699.64" y="103.56" type="curve" smooth="yes"/>
      <point x="893.304" y="103.56"/>
      <point x="1010.944" y="251.03"/>
      <point x="1010.944" y="543.64" type="curve" smooth="yes"/>
      <point x="1010.944" y="773.23"/>
      <point x="880.808" y="927.23"/>
      <point x="686.32" y="927.23" type="curve" smooth="yes"/>
      <point x="476.672" y="927.23"/>
      <point x="341.192" y="771.44"/>
      <point x="341.192" y="515.0" type="curve" smooth="yes"/>
      <point x="341.192" y="249.24"/>
      <point x="485.824" y="103.56"/>
    </contour>
  </outline>
</glyph>
<glyph name="d" format="1">
  <advance width="1263.336"/>
  <unicode hex="0064"/>
  <outline>
    <contour>
      <point x="573.168" y="-21.21" type="curve" smooth="yes"/>
      <point x="289.184" y="-21.21"/>
      <point x="96.84" y="182.0"/>
      <point x="96.84" y="506.21" type="curve" smooth="yes"/>
      <point x="96.84" y="848.54"/>
      <point x="289.32" y="1052.0"/>
      <point x="575.512" y="1052.0" type="curve" smooth="yes"/>
      <point x="745.672" y="1052.0"/>
      <point x="875.816" y="964.0"/>
      <point x="922.304" y="854.51" type="curve"/>
      <point x="922.304" y="1497.01" type="line"/>
      <point x="1074.864" y="1497.01" type="line"/>
      <point x="1074.864" y="254.1" type="line" smooth="yes"/>
      <point x="1076.696" y="166.03"/>
      <point x="1079.528" y="53.9"/>
      <point x="1081.032" y="0.0" type="curve"/>
      <point x="929.8" y="0.0" type="line"/>
      <point x="924.136" y="190.91" type="line"/>
      <point x="875.32" y="74.42"/>
      <point x="755.672" y="-21.21"/>
    </contour>
    <contour>
      <point x="582.528" y="103.56" type="curve" smooth="yes"/>
      <point x="787.184" y="103.56"/>
      <point x="923.808" y="249.24"/>
      <point x="923.808" y="532.9" type="curve" smooth="yes"/>
      <point x="923.808" y="766.07"/>
      <point x="792.176" y="927.23"/>
      <point x="593.52" y="927.23" type="curve" smooth="yes"/>
      <point x="391.2" y="927.23"/>
      <point x="252.24" y="767.86"/>
      <point x="252.24" y="506.05" type="curve" smooth="yes"/>
      <point x="252.24" y="252.82"/>
      <point x="387.032" y="103.56"/>
    </contour>
  </outline>
</glyph>
<glyph name="j" format="1">
  <advance width="581.16"/>
  <unicode hex="006A"/>
  <outline>
    <contour>
      <point x="88.992" y="-413.8" type="curve" smooth="yes"/>
      <point x="264.08" y="-413.8"/>
      <point x="368.216" y="-345.62"/>
      <point x="368.216" y="-25.33" type="curve" smooth="yes"/>
      <point x="368.216" y="1026.0" type="line"/>
      <point x="215.656" y="1026.0" type="line"/>
      <point x="215.656" y="-13.38" type="line" smooth="yes"/>
      <point x="215.656" y="-221.86"/>
      <point x="202.296" y="-295.29"/>
      <point x="61.496" y="-295.29" type="curve" smooth="yes"/>
      <point x="-0.84" y="-295.29"/>
      <point x="-62.008" y="-275.5"/>
      <point x="-62.008" y="-275.5" type="curve"/>
      <point x="-76.512" y="-392.59" type="line"/>
      <point x="-17.888" y="-406.91"/>
      <point x="49.448" y="-413.8"/>
    </contour>
    <contour>
      <point x="215.656" y="1309.65" type="line"/>
      <point x="368.216" y="1309.65" type="line"/>
      <point x="368.216" y="1456.0" type="line"/>
      <point x="215.656" y="1456.0" type="line"/>
    </contour>
  </outline>
</glyph>
<glyph name="k" format="1">
  <advance width="1067.184"/>
  <unicode hex="006B"/>
  <outline>
    <contour>
      <point x="184.64" y="0.0" type="line"/>
      <point x="184.64" y="1497.01" type="line"/>
      <point x="336.368" y="1497.01" type="line"/>
      <point x="336.368" y="584.31" type="line"/>
      <point x="816.632" y="1026.0" type="line"/>
      <point x="1022.552" y="1026.0" type="line"/>
      <point x="485.416" y="542.74" type="line"/>
      <point x="1061.048" y="0.0" type="line"/>
      <point x="859.8" y="0.0" type="line"/>
      <point x="336.368" y="509.28" type="line"/>
      <point x="336.368" y="0.0" type="line"/>
    </contour>
  </outline>
</glyph>
<glyph name="l" format="1">
  <advance width="528.832"/>
  <unicode hex="006C"/>
  <outline>
    <contour>
      <point x="190.304" y="0.0" type="line"/>
      <point x="190.304" y="1497.01" type="line"/>
      <point x="343.696" y="1497.01" type="line"/>
      <point x="343.696" y="0.0" type="line"/>
    </contour>
  </outline>
</glyph>
<glyph name="m" format="1">
  <advance width="1891.8"/>
  <unicode hex="006D"/>
  <outline>
    <contour>
      <point x="186.816" y="0.0" type="line"/>
      <point x="186.816" y="769.44" type="line" smooth="yes"/>
      <point x="186.816" y="842.94"/>
      <point x="187.472" y="948.63"/>
      <point x="182.64" y="1026.0" type="curve"/>
      <point x="339.04" y="1026.0" type="line"/>
      <point x="339.04" y="841.25" type="line"/>
      <point x="398.2" y="984.79"/>
      <point x="558.336" y="1052.0"/>
      <point x="690.832" y="1052.0" type="curve" smooth="yes"/>
      <point x="841.816" y="1052.0"/>
      <point x="955.32" y="955.78"/>
      <point x="999.664" y="811.25" type="curve"/>
      <point x="1072.832" y="961.84"/>
      <point x="1223.136" y="1052.0"/>
      <point x="1393.792" y="1052.0" type="curve" smooth="yes"/>
      <point x="1607.32" y="1052.0"/>
      <point x="1728.152" y="895.74"/>
      <point x="1728.152" y="630.79" type="curve" smooth="yes"/>
      <point x="1728.152" y="0.0" type="line"/>
      <point x="1576.424" y="0.0" type="line"/>
      <point x="1576.424" y="607.63" type="line" smooth="yes"/>
      <point x="1576.424" y="845.35"/>
      <point x="1508.448" y="927.23"/>
      <point x="1370.128" y="927.23" type="curve" smooth="yes"/>
      <point x="1218.96" y="927.23"/>
      <point x="1038.512" y="794.18"/>
      <point x="1038.512" y="587.37" type="curve" smooth="yes"/>
      <point x="1038.512" y="0.0" type="line"/>
      <point x="886.784" y="0.0" type="line"/>
      <point x="886.784" y="636.95" type="line" smooth="yes"/>
      <point x="886.784" y="822.08"/>
      <point x="811.984" y="927.23"/>
      <point x="658.496" y="927.23" type="curve" smooth="yes"/>
      <point x="480.352" y="927.23"/>
      <point x="338.544" y="767.27"/>
      <point x="338.544" y="598.52" type="curve" smooth="yes"/>
      <point x="338.544" y="0.0" type="line"/>
    </contour>
  </outline>
</glyph>
<glyph name="p" format="1">
  <advance width="1253.512"/>
  <unicode hex="0070"/>
  <outline>
    <contour>
      <point x="188.648" y="-432.22" type="line"/>
      <point x="188.648" y="768.97" type="line" smooth="yes"/>
      <point x="188.648" y="818.06"/>
      <point x="187.808" y="927.95"/>
      <point x="182.64" y="1026.0" type="curve"/>
      <point x="339.208" y="1026.0" type="line"/>
      <point x="339.208" y="831.83" type="line"/>
      <point x="397.512" y="970.85"/>
      <point x="560.648" y="1052.0"/>
      <point x="684.856" y="1052.0" type="curve" smooth="yes"/>
      <point x="970.352" y="1052.0"/>
      <point x="1155.008" y="855.54"/>
      <point x="1155.008" y="526.79" type="curve" smooth="yes"/>
      <point x="1155.008" y="180.93"/>
      <point x="964.024" y="-21.21"/>
      <point x="690.344" y="-21.21" type="curve" smooth="yes"/>
      <point x="540.824" y="-21.21"/>
      <point x="390.016" y="56.36"/>
      <point x="339.208" y="173.64" type="curve"/>
      <point x="339.208" y="-432.22" type="line"/>
    </contour>
    <contour>
      <point x="674.984" y="103.56" type="curve" smooth="yes"/>
      <point x="866.816" y="103.56"/>
      <point x="995.112" y="258.19"/>
      <point x="995.112" y="522.16" type="curve" smooth="yes"/>
      <point x="995.112" y="773.23"/>
      <point x="871.808" y="927.23"/>
      <point x="682.312" y="927.23" type="curve" smooth="yes"/>
      <point x="478.16" y="927.23"/>
      <point x="341.864" y="760.7"/>
      <point x="341.864" y="489.94" type="curve" smooth="yes"/>
      <point x="341.864" y="245.66"/>
      <point x="475.824" y="103.56"/>
    </contour>
  </outline>
</glyph>
<glyph name="s" format="1">
  <advance width="936.392"/>
  <unicode hex="0073"/>
  <outline>
    <contour>
      <point x="501.2" y="-21.21" type="curve" smooth="yes"/>
      <point x="289.208" y="-21.21"/>
      <point x="170.848" y="80.22"/>
      <point x="152.808" y="99.63" type="curve"/>
      <point x="195.488" y="211.19" type="line"/>
      <point x="243.512" y="175.25"/>
      <point x="357.032" y="102.77"/>
      <point x="491.192" y="102.77" type="curve" smooth="yes"/>
      <point x="584.368" y="102.77"/>
      <point x="697.504" y="132.98"/>
      <point x="697.504" y="271.1" type="curve" smooth="yes"/>
      <point x="697.504" y="405.07"/>
      <point x="584.72" y="419.33"/>
      <point x="409.064" y="485.07" type="curve"/>
      <point x="264.528" y="542.12"/>
      <point x="150.816" y="598.49"/>
      <point x="150.816" y="773.9" type="curve" smooth="yes"/>
      <point x="150.816" y="970.79"/>
      <point x="341.312" y="1051.79"/>
      <point x="486.352" y="1051.79" type="curve" smooth="yes"/>
      <point x="684.808" y="1051.79"/>
      <point x="776.008" y="987.15"/>
      <point x="803.224" y="967.32" type="curve"/>
      <point x="758.544" y="856.81" type="line"/>
      <point x="758.16" y="858.8"/>
      <point x="652.816" y="926.44"/>
      <point x="524.672" y="926.44" type="curve" smooth="yes"/>
      <point x="380.536" y="926.44"/>
      <point x="302.208" y="875.12"/>
      <point x="301.376" y="779.69" type="curve" smooth="yes"/>
      <point x="300.544" y="657.62"/>
      <point x="370.696" y="651.57"/>
      <point x="576.832" y="572.09" type="curve" smooth="yes"/>
      <point x="733.528" y="512.83"/>
      <point x="840.728" y="456.67"/>
      <point x="840.728" y="283.63" type="curve" smooth="yes"/>
      <point x="840.728" y="62.95"/>
      <point x="673.536" y="-21.21"/>
    </contour>
  </outline>
</glyph>
<glyph name="x" format="1">
  <advance width="1012.856"/>
  <unicode hex="0078"/>
  <outline>
    <contour>
      <point x="52.976" y="0.0" type="line"/>
      <point x="434.968" y="518.11" type="line"/>
      <point x="78.304" y="1026.0" type="line"/>
      <point x="233.048" y="1026.0" type="line"/>
      <point x="502.184" y="618.77" type="line"/>
      <point x="787.992" y="1026.0" type="line"/>
      <point x="947.72" y="1026.0" type="line"/>
      <point x="581.056" y="517.68" type="line"/>
      <point x="959.88" y="0.0" type="line"/>
      <point x="804.304" y="0.0" type="line"/>
      <point x="511.176" y="420.6" type="line"/>
      <point x="211.208" y="0.0" type="line"/>
    </contour>
  </outline>
</glyph>
<glyph name="z" format="1">
  <advance width="953.528"/>
  <unicode hex="007A"/>
  <outline>
    <contour>
      <point x="94.504" y="0.0" type="line"/>
      <point x="94.504" y="83.83" type="line"/>
      <point x="662.448" y="899.65" type="line"/>
      <point x="92.688" y="899.65" type="line"/>
      <point x="92.688" y="1026.0" type="line"/>
      <point x="854.864" y="1026.0" type="line"/>
      <point x="854.864" y="944.17" type="line"/>
      <point x="289.416" y="125.35" type="line"/>
      <point x="872.536" y="125.35" type="line"/>
      <point x="872.536" y="0.0" type="line"/>
    </contour>
  </outline>
</glyph>
<glyph name="bar" format="1">
  <advance width="1248.456"/>
  <unicode hex="007C"/>
  <outline>
    <contour>
      <point x="552.032" y="-495.8" type="line"/>
      <point x="552.032" y="1549.59" type="line"/>
      <point x="696.424" y="1549.59" type="line"/>
      <point x="696.424" y="-495.8" type="line"/>
    </contour>
  </outline>
</glyph>
<glyph name="braceright" format="1">
  <advance width="790.432"/>
  <unicode hex="007D"/>
  <outline>
    <contour>
      <point x="103.672" y="-269.03" type="curve"/>
      <point x="103.672" y="-152.84" type="line"/>
      <point x="201.368" y="-149.26"/>
      <point x="334.608" y="-118.7"/>
      <point x="334.608" y="4.24" type="curve" smooth="yes"/>
      <point x="334.608" y="302.26" type="line" smooth="yes"/>
      <point x="334.608" y="468.86"/>
      <point x="443.912" y="557.92"/>
      <point x="570.872" y="589.13" type="curve"/>
      <point x="425.424" y="629.76"/>
      <point x="334.608" y="780.63"/>
      <point x="334.608" y="860.82" type="curve" smooth="yes"/>
      <point x="334.608" y="1070.75" type="line" smooth="yes"/>
      <point x="334.608" y="1268.14"/>
      <point x="237.632" y="1329.84"/>
      <point x="103.008" y="1329.05" type="curve"/>
      <point x="103.008" y="1444.24" type="line"/>
      <point x="262.96" y="1435.29"/>
      <point x="485.008" y="1377.79"/>
      <point x="485.008" y="1188.48" type="curve" smooth="yes"/>
      <point x="485.008" y="917.99" type="line" smooth="yes"/>
      <point x="485.008" y="798.63"/>
      <point x="542.832" y="666.92"/>
      <point x="706.288" y="647.23" type="curve"/>
      <point x="706.288" y="532.93" type="line"/>
      <point x="586.632" y="520.4"/>
      <point x="486.008" y="425.81"/>
      <point x="484.176" y="289.12" type="curve" smooth="yes"/>
      <point x="484.176" y="29.74" type="line" smooth="yes"/>
      <point x="484.176" y="-164.47"/>
      <point x="324.248" y="-269.03"/>
    </contour>
  </outline>
</glyph>
<glyph name="cent" format="1">
  <advance width="1004.712"/>
  <unicode hex="00A2"/>
  <outline>
    <contour>
      <point x="569.008" y="-198.41" type="line"/>
      <point x="569.008" y="1251.79" type="line"/>
      <point x="658.192" y="1251.79" type="line"/>
      <point x="658.192" y="-198.41" type="line"/>
    </contour>
    <component base="c"/>
  </outline>
</glyph>
<glyph name="brokenbar" format="1">
  <advance width="500.0"/>
  <unicode hex="00A6"/>
  <outline>
    <contour>
      <point x="176.128" y="-495.8" type="line"/>
      <point x="176.128" y="390.52" type="line"/>
      <point x="320.688" y="390.52" type="line"/>
      <point x="320.688" y="-495.8" type="line"/>
    </contour>
    <contour>
      <point x="177.792" y="691.98" type="line"/>
      <point x="177.792" y="1549.59" type="line"/>
      <point x="320.52" y="1549.59" type="line"/>
      <point x="320.52" y="691.98" type="line"/>
    </contour>
  </outline>
</glyph>
<glyph name="dieresis" format="1">
  <advance width="743.0"/>
  <unicode hex="00A8"/>
  <outline>
    <contour>
      <point x="107.776" y="1246.77" type="line"/>
      <point x="107.776" y="1436.34" type="line"/>
      <point x="266.832" y="1436.34" type="line"/>
      <point x="266.832" y="1246.77" type="line"/>
    </contour>
    <contour>
      <point x="477.832" y="1246.77" type="line"/>
      <point x="477.832" y="1436.34" type="line"/>
      <point x="637.72" y="1436.34" type="line"/>
      <point x="637.72" y="1246.77" type="line"/>
    </contour>
  </outline>
</glyph>
<glyph name="ordfeminine" format="1">
  <advance width="750.408"/>
  <unicode hex="00AA"/>
  <outline>
    <contour>
      <point x="324.848" y="775.54" type="curve" smooth="yes"/>
      <point x="418.704" y="775.54"/>
      <point x="502.528" y="816.32"/>
      <point x="542.68" y="884.85" type="curve"/>
      <point x="546.688" y="792.22" type="line"/>
      <point x="668.392" y="792.22" type="line"/>
      <point x="661.728" y="883.87"/>
      <point x="661.392" y="914.82"/>
      <point x="661.224" y="915.37" type="curve" smooth="yes"/>
      <point x="662.056" y="904.77"/>
      <point x="664.72" y="1266.01"/>
      <point x="664.72" y="1243.12" type="curve" smooth="yes"/>
      <point x="664.72" y="1409.79"/>
      <point x="543.04" y="1478.0"/>
      <point x="397.696" y="1478.0" type="curve" smooth="yes"/>
      <point x="242.344" y="1478.0"/>
      <point x="123.176" y="1410.79"/>
      <point x="123.176" y="1410.79" type="curve"/>
      <point x="156.192" y="1322.33" type="line"/>
      <point x="156.192" y="1322.33"/>
      <point x="268.032" y="1377.12"/>
      <point x="394.184" y="1377.12" type="curve" smooth="yes"/>
      <point x="509.656" y="1377.12"/>
      <point x="544.504" y="1326.22"/>
      <point x="544.504" y="1208.74" type="curve" smooth="yes"/>
      <point x="544.504" y="1184.85" type="line"/>
      <point x="371.168" y="1184.85" type="line" smooth="yes"/>
      <point x="177.344" y="1184.85"/>
      <point x="82.016" y="1105.85"/>
      <point x="82.016" y="980.59" type="curve" smooth="yes"/>
      <point x="82.016" y="857.49"/>
      <point x="180.528" y="775.54"/>
    </contour>
    <contour>
      <point x="340.68" y="870.11" type="curve" smooth="yes"/>
      <point x="255.208" y="870.11"/>
      <point x="203.712" y="910.27"/>
      <point x="203.712" y="986.96" type="curve" smooth="yes"/>
      <point x="203.712" y="1110.65"/>
      <point x="321.176" y="1106.7"/>
      <point x="544.336" y="1106.7" type="curve"/>
      <point x="544.336" y="1107.49"/>
      <point x="544.336" y="1079.17"/>
      <point x="544.336" y="1079.96" type="curve" smooth="yes"/>
      <point x="544.336" y="970.65"/>
      <point x="483.968" y="870.11"/>
    </contour>
  </outline>
</glyph>
<glyph name="registered" format="1">
  <advance width="1736.152"/>
  <unicode hex="00AE"/>
  <outline>
    <contour>
      <point x="867.16" y="1484.79" type="curve" smooth="yes"/>
      <point x="449.496" y="1484.79"/>
      <point x="107.832" y="1143.21"/>
      <point x="107.832" y="725.63" type="curve" smooth="yes"/>
      <point x="107.832" y="308.05"/>
      <point x="449.496" y="-32.74"/>
      <point x="867.16" y="-32.74" type="curve" smooth="yes"/>
      <point x="1284.824" y="-32.74"/>
      <point x="1628.32" y="308.05"/>
      <point x="1628.32" y="725.63" type="curve" smooth="yes"/>
      <point x="1628.32" y="1143.21"/>
      <point x="1284.824" y="1484.79"/>
    </contour>
    <contour>
      <point x="869.824" y="61.36" type="curve" smooth="yes"/>
      <point x="510.0" y="61.36"/>
      <point x="218.512" y="363.1"/>
      <point x="218.512" y="722.63" type="curve" smooth="yes"/>
      <point x="218.512" y="1082.16"/>
      <point x="510.0" y="1383.9"/>
      <point x="869.824" y="1383.9" type="curve" smooth="yes"/>
      <point x="1228.648" y="1383.9"/>
      <point x="1517.472" y="1082.16"/>
      <point x="1517.472" y="722.63" type="curve" smooth="yes"/>
      <point x="1517.472" y="363.1"/>
      <point x="1228.648" y="61.36"/>
    </contour>
    <contour>
      <point x="690.528" y="771.68" type="line"/>
      <point x="690.528" y="1081.02" type="line"/>
      <point x="809.688" y="1081.02" type="line" smooth="yes"/>
      <point x="1029.64" y="1081.02"/>
      <point x="1087.456" y="1062.86"/>
      <point x="1087.456" y="924.06" type="curve" smooth="yes"/>
      <point x="1087.456" y="797.05"/>
      <point x="1003.296" y="771.68"/>
      <point x="823.168" y="771.68" type="curve" smooth="yes"/>
    </contour>
    <contour>
      <point x="694.192" y="270.1" type="line"/>
      <point x="694.192" y="675.38" type="line"/>
      <point x="871.824" y="675.38" type="line"/>
      <point x="1073.792" y="270.1" type="line"/>
      <point x="1231.008" y="270.1" type="line"/>
      <point x="1007.864" y="689.48" type="line"/>
      <point x="1187.672" y="721.11"/>
      <point x="1233.0" y="813.58"/>
      <point x="1233.0" y="939.64" type="curve" smooth="yes"/>
      <point x="1233.0" y="1104.27"/>
      <point x="1116.832" y="1195.48"/>
      <point x="822.176" y="1195.48" type="curve" smooth="yes"/>
      <point x="556.976" y="1195.48" type="line"/>
      <point x="556.976" y="270.1" type="line"/>
    </contour>
  </outline>
</glyph>
<glyph name="degree" format="1">
  <advance width="836.032"/>
  <unicode hex="00B0"/>
  <outline>
    <contour>
      <point x="418.016" y="1441.52" type="curve" smooth="yes"/>
      <point x="245.184" y="1441.52"/>
      <point x="118.84" y="1309.1"/>
      <point x="118.84" y="1148.84" type="curve" smooth="yes"/>
      <point x="118.84" y="989.37"/>
      <point x="245.184" y="855.37"/>
      <point x="418.016" y="855.37" type="curve" smooth="yes"/>
      <point x="590.016" y="855.37"/>
      <point x="717.192" y="989.37"/>
      <point x="717.192" y="1148.84" type="curve" smooth="yes"/>
      <point x="717.192" y="1309.1"/>
      <point x="591.848" y="1441.52"/>
    </contour>
    <contour>
      <point x="418.016" y="957.73" type="curve" smooth="yes"/>
      <point x="295.368" y="957.73"/>
      <point x="232.528" y="1049.84"/>
      <point x="232.528" y="1150.63" type="curve" smooth="yes"/>
      <point x="232.528" y="1252.21"/>
      <point x="299.032" y="1338.95"/>
      <point x="418.016" y="1338.95" type="curve" smooth="yes"/>
      <point x="535.336" y="1338.95"/>
      <point x="605.504" y="1252.21"/>
      <point x="605.504" y="1150.63" type="curve" smooth="yes"/>
      <point x="605.504" y="1049.84"/>
      <point x="539.0" y="957.73"/>
    </contour>
  </outline>
</glyph>
<glyph name="uni00B2" format="1">
  <advance width="1157"/>
  <unicode hex="00B2"/>
  <outline>
    <contour>
      <point x="300" y="618" type="line"/>
      <point x="300" y="746" type="line"/>
      <point x="578" y="988"/>
      <point x="712" y="1126"/>
      <point x="712" y="1220" type="curve" smooth="yes"/>
      <point x="712" y="1286"/>
      <point x="661" y="1324"/>
      <point x="582" y="1324" type="curve" smooth="yes"/>
      <point x="504" y="1324"/>
      <point x="430" y="1281"/>
      <point x="379" y="1212" type="curve"/>
      <point x="301" y="1314" type="line"/>
      <point x="364" y="1406"/>
      <point x="472" y="1458"/>
      <point x="591" y="1458" type="curve" smooth="yes"/>
      <point x="744" y="1458"/>
      <point x="864" y="1374"/>
      <point x="864" y="1222" type="curve" smooth="yes"/>
      <point x="864" y="1054"/>
      <point x="705" y="915"/>
      <point x="514" y="757" type="curve"/>
      <point x="859" y="757" type="line"/>
      <point x="859" y="618" type="line"/>
    </contour>
  </outline>
</glyph>
<glyph name="paragraph" format="1">
  <advance width="1201.016"/>
  <unicode hex="00B6"/>
  <outline>
    <contour>
      <point x="489.456" y="-179.79" type="line"/>
      <point x="489.456" y="826.22" type="line"/>
      <point x="313.264" y="824.32"/>
      <point x="136.64" y="929.0"/>
      <point x="136.64" y="1135.37" type="curve" smooth="yes"/>
      <point x="136.64" y="1384.63"/>
      <point x="322.816" y="1456.79"/>
      <point x="598.984" y="1456.79" type="curve" smooth="yes"/>
      <point x="1026.36" y="1456.79" type="line"/>
      <point x="1026.36" y="1341.02" type="line"/>
      <point x="937.864" y="1341.02" type="line"/>
      <point x="937.864" y="-179.79" type="line"/>
      <point x="822.976" y="-179.79" type="line"/>
      <point x="822.976" y="1341.02" type="line"/>
      <point x="606.176" y="1341.02" type="line"/>
      <point x="606.176" y="-179.79" type="line"/>
    </contour>
  </outline>
</glyph>
<glyph name="cedilla" format="1">
  <advance width="529.0"/>
  <unicode hex="00B8"/>
  <outline>
    <contour>
      <point x="62.136" y="-469.97" type="curve"/>
      <point x="74.304" y="-389.35" type="line"/>
      <point x="114.288" y="-402.72"/>
      <point x="147.168" y="-408.61"/>
      <point x="197.344" y="-408.61" type="curve" smooth="yes"/>
      <point x="256.848" y="-408.61"/>
      <point x="332.648" y="-392.88"/>
      <point x="332.648" y="-316.34" type="curve" smooth="yes"/>
      <point x="332.648" y="-271.02"/>
      <point x="289.496" y="-207.28"/>
      <point x="166.992" y="-207.28" type="curve" smooth="yes"/>
      <point x="150.648" y="-207.28" type="line"/>
      <point x="185.312" y="14.89" type="line"/>
      <point x="265.84" y="14.89" type="line"/>
      <point x="246.008" y="-140.44" type="line"/>
      <point x="364.712" y="-151.28"/>
      <point x="461.696" y="-213.33"/>
      <point x="461.696" y="-321.34" type="curve" smooth="yes"/>
      <point x="461.696" y="-467.62"/>
      <point x="290.096" y="-491.81"/>
      <point x="216.0" y="-491.81" type="curve" smooth="yes"/>
      <point x="151.672" y="-491.81"/>
      <point x="142.088" y="-494.66"/>
    </contour>
  </outline>
</glyph>
<glyph name="ordmasculine" format="1">
  <advance width="869.528"/>
  <unicode hex="00BA"/>
  <outline>
    <contour>
      <point x="440.344" y="884.74" type="curve" smooth="yes"/>
      <point x="577.496" y="884.74"/>
      <point x="661.824" y="977.48"/>
      <point x="661.824" y="1122.17" type="curve" smooth="yes"/>
      <point x="661.824" y="1273.07"/>
      <point x="577.496" y="1366.39"/>
      <point x="435.848" y="1366.39" type="curve" smooth="yes"/>
      <point x="298.864" y="1366.39"/>
      <point x="214.2" y="1273.65"/>
      <point x="214.2" y="1126.96" type="curve" smooth="yes"/>
      <point x="214.2" y="976.27"/>
      <point x="294.528" y="884.74"/>
    </contour>
    <contour>
      <point x="437.848" y="775.49" type="curve" smooth="yes"/>
      <point x="201.336" y="775.49"/>
      <point x="79.496" y="931.7"/>
      <point x="79.496" y="1130.75" type="curve" smooth="yes"/>
      <point x="79.496" y="1327.38"/>
      <point x="208.504" y="1481.01"/>
      <point x="436.68" y="1481.01" type="curve" smooth="yes"/>
      <point x="668.688" y="1481.01"/>
      <point x="791.864" y="1325.17"/>
      <point x="791.864" y="1126.75" type="curve" smooth="yes"/>
      <point x="791.864" y="934.12"/>
      <point x="667.024" y="775.49"/>
    </contour>
  </outline>
</glyph>
<glyph name="guillemotright" format="1">
  <advance width="1085.392"/>
  <unicode hex="00BB"/>
  <outline>
    <contour>
      <point x="693.392" y="912.05" type="line"/>
      <point x="960.232" y="545.37" type="line"/>
      <point x="687.392" y="172.53" type="line"/>
      <point x="545.688" y="172.53" type="line"/>
      <point x="798.512" y="544.58" type="line"/>
      <point x="553.688" y="912.05" type="line"/>
    </contour>
    <contour>
      <point x="269.048" y="912.05" type="line"/>
      <point x="537.72" y="545.37" type="line"/>
      <point x="264.88" y="172.53" type="line"/>
      <point x="121.344" y="172.53" type="line"/>
      <point x="374.168" y="544.58" type="line"/>
      <point x="129.344" y="912.05" type="line"/>
    </contour>
  </outline>
</glyph>
<glyph name="onequarter" format="1">
  <advance width="1964.928"/>
  <unicode hex="00BC"/>
  <outline>
    <contour>
      <point x="1394.048" y="42.17" type="line"/>
      <point x="1394.048" y="229.8" type="line"/>
      <point x="1014.888" y="229.8" type="line"/>
      <point x="1014.888" y="316.53" type="line"/>
      <point x="1381.056" y="836.06" type="line"/>
      <point x="1507.424" y="836.06" type="line"/>
      <point x="1507.424" y="332.95" type="line"/>
      <point x="1614.264" y="332.95" type="line"/>
      <point x="1627.088" y="229.8" type="line"/>
      <point x="1505.592" y="229.8" type="line"/>
      <point x="1505.592" y="42.17" type="line"/>
    </contour>
    <contour>
      <point x="1146.92" y="332.95" type="line"/>
      <point x="1392.048" y="332.95" type="line"/>
      <point x="1392.048" y="676.55" type="line"/>
    </contour>
    <contour>
      <point x="413.304" y="0.0" type="line"/>
      <point x="1321.456" y="1456.0" type="line"/>
      <point x="1459.504" y="1456.0" type="line"/>
      <point x="554.184" y="0.0" type="line"/>
    </contour>
    <contour>
      <point x="247.152" y="635.32" type="line"/>
      <point x="247.152" y="747.36" type="line"/>
      <point x="354.552" y="747.36" type="line"/>
      <point x="354.552" y="1305.8" type="line"/>
      <point x="303.256" y="1278.95"/>
      <point x="276.12" y="1257.96"/>
      <point x="213.832" y="1234.69" type="curve"/>
      <point x="213.832" y="1359.1" type="line"/>
      <point x="298.104" y="1385.95"/>
      <point x="311.944" y="1405.88"/>
      <point x="366.904" y="1438.1" type="curve"/>
      <point x="462.776" y="1456.0" type="line"/>
      <point x="462.776" y="745.36" type="line"/>
      <point x="575.488" y="745.36" type="line"/>
      <point x="575.488" y="635.32" type="line"/>
    </contour>
  </outline>
</glyph>
<glyph name="onehalf" format="1">
  <advance width="1893.088"/>
  <unicode hex="00BD"/>
  <outline>
    <contour>
      <point x="250.8" y="635.32" type="line"/>
      <point x="250.8" y="747.36" type="line"/>
      <point x="358.2" y="747.36" type="line"/>
      <point x="358.2" y="1305.8" type="line"/>
      <point x="306.904" y="1278.95"/>
      <point x="281.6" y="1257.96"/>
      <point x="219.312" y="1234.69" type="curve"/>
      <point x="219.312" y="1359.1" type="line"/>
      <point x="303.584" y="1385.95"/>
      <point x="315.592" y="1405.88"/>
      <point x="370.552" y="1438.1" type="curve"/>
      <point x="466.424" y="1456.0" type="line"/>
      <point x="466.424" y="745.36" type="line"/>
      <point x="579.136" y="745.36" type="line"/>
      <point x="579.136" y="635.32" type="line"/>
    </contour>
    <contour>
      <point x="1073.672" y="0.0" type="line"/>
      <point x="1073.672" y="101.93" type="line"/>
      <point x="1297.592" y="317.86"/>
      <point x="1494.824" y="491.41"/>
      <point x="1494.824" y="609.9" type="curve" smooth="yes"/>
      <point x="1494.824" y="676.69"/>
      <point x="1439.664" y="724.17"/>
      <point x="1348.184" y="724.17" type="curve" smooth="yes"/>
      <point x="1263.528" y="724.17"/>
      <point x="1204.504" y="672.48"/>
      <point x="1173.472" y="585.31" type="curve"/>
      <point x="1084.656" y="650.97" type="line"/>
      <point x="1121.032" y="766.67"/>
      <point x="1222.376" y="834.68"/>
      <point x="1353.856" y="834.68" type="curve" smooth="yes"/>
      <point x="1502.696" y="834.68"/>
      <point x="1611.88" y="744.15"/>
      <point x="1611.88" y="611.9" type="curve" smooth="yes"/>
      <point x="1611.88" y="439.16"/>
      <point x="1448.72" y="292.26"/>
      <point x="1238.584" y="108.98" type="curve"/>
      <point x="1611.872" y="108.98" type="line"/>
      <point x="1611.872" y="0.0" type="line"/>
    </contour>
    <contour>
      <point x="340.856" y="0.0" type="line"/>
      <point x="1249.008" y="1456.0" type="line"/>
      <point x="1388.888" y="1456.0" type="line"/>
      <point x="481.736" y="0.0" type="line"/>
    </contour>
  </outline>
</glyph>
<glyph name="threequarters" format="1">
  <advance width="1896.24"/>
  <unicode hex="00BE"/>
  <outline>
    <contour>
      <point x="437.896" y="601.21" type="curve" smooth="yes"/>
      <point x="342.392" y="601.21"/>
      <point x="259.208" y="634.21"/>
      <point x="199.192" y="698.79" type="curve"/>
      <point x="260.192" y="790.78" type="line"/>
      <point x="309.384" y="739.57"/>
      <point x="369.56" y="712.99"/>
      <point x="433.056" y="712.99" type="curve" smooth="yes"/>
      <point x="531.048" y="712.99"/>
      <point x="616.024" y="762.2"/>
      <point x="616.024" y="850.52" type="curve" smooth="yes"/>
      <point x="616.024" y="953.32"/>
      <point x="528.376" y="987.58"/>
      <point x="391.4" y="987.58" type="curve" smooth="yes"/>
      <point x="385.904" y="987.58"/>
      <point x="341.04" y="985.79"/>
      <point x="341.04" y="985.79" type="curve"/>
      <point x="341.04" y="1103.1" type="line"/>
      <point x="382.904" y="1103.1" type="line" smooth="yes"/>
      <point x="503.544" y="1103.1"/>
      <point x="590.36" y="1130.57"/>
      <point x="590.36" y="1226.37" type="curve" smooth="yes"/>
      <point x="590.36" y="1306.11"/>
      <point x="528.368" y="1340.9"/>
      <point x="445.208" y="1340.9" type="curve" smooth="yes"/>
      <point x="372.216" y="1340.9"/>
      <point x="312.536" y="1307.16"/>
      <point x="259.352" y="1260.37" type="curve"/>
      <point x="201.184" y="1353.31" type="line"/>
      <point x="256.712" y="1413.89"/>
      <point x="348.56" y="1455.63"/>
      <point x="443.064" y="1455.63" type="curve" smooth="yes"/>
      <point x="581.904" y="1455.63"/>
      <point x="714.896" y="1371.52"/>
      <point x="714.896" y="1226.1" type="curve" smooth="yes"/>
      <point x="714.896" y="1145.2"/>
      <point x="674.24" y="1082.52"/>
      <point x="614.2" y="1045.52" type="curve"/>
      <point x="684.408" y="1008.94"/>
      <point x="734.736" y="945.42"/>
      <point x="734.736" y="847.52" type="curve" smooth="yes"/>
      <point x="734.736" y="698.53"/>
      <point x="598.896" y="601.21"/>
    </contour>
    <contour>
      <point x="1174.416" y="332.95" type="line"/>
      <point x="1419.544" y="332.95" type="line"/>
      <point x="1419.544" y="676.55" type="line"/>
    </contour>
    <contour>
      <point x="1421.544" y="42.17" type="line"/>
      <point x="1421.544" y="229.8" type="line"/>
      <point x="1042.384" y="229.8" type="line"/>
      <point x="1042.384" y="316.53" type="line"/>
      <point x="1408.552" y="836.06" type="line"/>
      <point x="1534.92" y="836.06" type="line"/>
      <point x="1534.92" y="332.95" type="line"/>
      <point x="1641.76" y="332.95" type="line"/>
      <point x="1652.752" y="229.8" type="line"/>
      <point x="1531.256" y="229.8" type="line"/>
      <point x="1531.256" y="42.17" type="line"/>
    </contour>
    <contour>
      <point x="438.968" y="0.0" type="line"/>
      <point x="1347.12" y="1456.0" type="line"/>
      <point x="1487.0" y="1456.0" type="line"/>
      <point x="579.848" y="0.0" type="line"/>
    </contour>
  </outline>
</glyph>
<glyph name="AE" format="1">
  <advance width="1978.984"/>
  <unicode hex="00C6"/>
  <outline>
    <contour>
      <point x="29.16" y="0.0" type="line"/>
      <point x="869.0" y="1456.0" type="line"/>
      <point x="1842.248" y="1456.0" type="line"/>
      <point x="1842.248" y="1324.34" type="line"/>
      <point x="1135.28" y="1324.34" type="line"/>
      <point x="1177.608" y="814.99" type="line"/>
      <point x="1793.944" y="814.99" type="line"/>
      <point x="1793.944" y="691.12" type="line"/>
      <point x="1187.12" y="691.12" type="line"/>
      <point x="1238.112" y="129.87" type="line"/>
      <point x="1866.416" y="129.87" type="line"/>
      <point x="1866.416" y="0.0" type="line"/>
      <point x="1103.528" y="0.0" type="line"/>
      <point x="1064.368" y="424.86" type="line"/>
      <point x="436.896" y="424.86" type="line"/>
      <point x="195.088" y="0.0" type="line"/>
    </contour>
    <contour>
      <point x="495.592" y="543.47" type="line"/>
      <point x="1052.864" y="543.47" type="line"/>
      <point x="992.872" y="1324.34" type="line"/>
      <point x="936.72" y="1324.34" type="line"/>
    </contour>
  </outline>
</glyph>
<glyph name="Thorn" format="1">
  <advance width="1268.52"/>
  <unicode hex="00DE"/>
  <outline>
    <contour>
      <point x="204.824" y="0.0" type="line"/>
      <point x="204.824" y="1456.0" type="line"/>
      <point x="363.384" y="1456.0" type="line"/>
      <point x="363.384" y="1214.63" type="line"/>
      <point x="578.184" y="1214.63" type="line" smooth="yes"/>
      <point x="917.52" y="1214.63"/>
      <point x="1196.016" y="1136.05"/>
      <point x="1196.016" y="779.37" type="curve" smooth="yes"/>
      <point x="1196.016" y="476.32"/>
      <point x="954.992" y="348.9"/>
      <point x="636.992" y="348.9" type="curve" smooth="yes"/>
      <point x="365.048" y="348.9" type="line"/>
      <point x="365.048" y="0.0" type="line"/>
    </contour>
    <contour>
      <point x="365.048" y="487.88" type="line"/>
      <point x="640.68" y="487.88" type="line" smooth="yes"/>
      <point x="866.816" y="487.88"/>
      <point x="1027.616" y="576.78"/>
      <point x="1027.616" y="777.58" type="curve" smooth="yes"/>
      <point x="1027.616" y="1016.54"/>
      <point x="851.816" y="1075.86"/>
      <point x="592.016" y="1075.86" type="curve" smooth="yes"/>
      <point x="365.048" y="1075.86" type="line"/>
    </contour>
  </outline>
</glyph>
<glyph name="ae" format="1">
  <advance width="1799.152"/>
  <unicode hex="00E6"/>
  <outline>
    <contour>
      <point x="440.856" y="-28.37" type="curve" smooth="yes"/>
      <point x="677.296" y="-28.37"/>
      <point x="807.32" y="94.59"/>
      <point x="882.152" y="231.64" type="curve"/>
      <point x="946.16" y="90.43"/>
      <point x="1094.32" y="-12.26"/>
      <point x="1251.504" y="-21.21" type="curve" smooth="yes"/>
      <point x="1541.96" y="-35.53"/>
      <point x="1658.992" y="98.05"/>
      <point x="1658.992" y="98.05" type="curve"/>
      <point x="1610.48" y="210.98" type="line"/>
      <point x="1610.48" y="210.98"/>
      <point x="1479.968" y="80.29"/>
      <point x="1254.84" y="103.56" type="curve" smooth="yes"/>
      <point x="1033.544" y="126.83"/>
      <point x="965.52" y="289.8"/>
      <point x="967.84" y="464.32" type="curve"/>
      <point x="967.84" y="496.06" type="line"/>
      <point x="1703.136" y="496.06" type="line"/>
      <point x="1703.136" y="496.06"/>
      <point x="1702.64" y="528.43"/>
      <point x="1702.64" y="525.37" type="curve" smooth="yes"/>
      <point x="1702.64" y="852.59"/>
      <point x="1539.656" y="1068.11"/>
      <point x="1249.312" y="1053.79" type="curve" smooth="yes"/>
      <point x="1104.976" y="1046.63"/>
      <point x="967.664" y="959.94"/>
      <point x="899.656" y="816.56" type="curve"/>
      <point x="854.976" y="969.57"/>
      <point x="701.144" y="1053.79"/>
      <point x="547.512" y="1053.79" type="curve" smooth="yes"/>
      <point x="334.0" y="1053.79"/>
      <point x="140.872" y="954.68"/>
      <point x="147.504" y="958.32" type="curve"/>
      <point x="193.52" y="841.49" type="line"/>
      <point x="170.624" y="832.26"/>
      <point x="362.888" y="926.07"/>
      <point x="544.312" y="926.07" type="curve" smooth="yes"/>
      <point x="720.96" y="926.07"/>
      <point x="810.12" y="799.43"/>
      <point x="809.288" y="605.36" type="curve"/>
      <point x="781.28" y="605.36" type="line" smooth="yes"/>
      <point x="430.232" y="605.36"/>
      <point x="83.16" y="599.22"/>
      <point x="83.16" y="281.26" type="curve" smooth="yes"/>
      <point x="83.16" y="90.79"/>
      <point x="235.832" y="-28.37"/>
    </contour>
    <contour>
      <point x="472.84" y="98.98" type="curve" smooth="yes"/>
      <point x="350.36" y="98.98"/>
      <point x="239.88" y="152.09"/>
      <point x="239.88" y="287.68" type="curve" smooth="yes"/>
      <point x="239.88" y="456.06"/>
      <point x="429.528" y="496.06"/>
      <point x="631.504" y="496.06" type="curve" smooth="yes"/>
      <point x="811.12" y="496.06" type="line"/>
      <point x="811.784" y="292.99"/>
      <point x="713.64" y="98.98"/>
    </contour>
    <contour>
      <point x="969.008" y="605.73" type="line"/>
      <point x="980.688" y="769.37"/>
      <point x="1076.176" y="924.49"/>
      <point x="1268.64" y="924.49" type="curve" smooth="yes"/>
      <point x="1460.08" y="924.49"/>
      <point x="1545.424" y="798.74"/>
      <point x="1566.088" y="623.68" type="curve" smooth="yes"/>
      <point x="1568.92" y="605.73" type="line"/>
    </contour>
  </outline>
</glyph>
<glyph name="eth" format="1">
  <advance width="1225.328"/>
  <unicode hex="00F0"/>
  <outline>
    <contour>
      <point x="601.488" y="-22.21" type="curve" smooth="yes"/>
      <point x="927.32" y="-22.21"/>
      <point x="1112.992" y="268.45"/>
      <point x="1112.992" y="633.74" type="curve" smooth="yes"/>
      <point x="1112.992" y="907.26"/>
      <point x="1010.472" y="1552.56"/>
      <point x="299.048" y="1720.92" type="curve"/>
      <point x="221.048" y="1612.67" type="line"/>
      <point x="234.584" y="1608.23"/>
      <point x="952.424" y="1292.22"/>
      <point x="948.112" y="721.29" type="curve"/>
      <point x="946.784" y="725.93"/>
      <point x="945.288" y="715.67"/>
      <point x="945.288" y="718.57" type="curve"/>
      <point x="908.08" y="792.77"/>
      <point x="812.896" y="895.05"/>
      <point x="603.792" y="895.05" type="curve" smooth="yes"/>
      <point x="323.96" y="895.05"/>
      <point x="107.328" y="707.73"/>
      <point x="107.328" y="442.94" type="curve" smooth="yes"/>
      <point x="107.328" y="177.15"/>
      <point x="298.824" y="-22.21"/>
    </contour>
    <contour>
      <point x="588.176" y="110.72" type="curve" smooth="yes"/>
      <point x="392.224" y="110.72"/>
      <point x="269.72" y="256.42"/>
      <point x="269.72" y="438.47" type="curve" smooth="yes"/>
      <point x="269.72" y="617.26"/>
      <point x="388.72" y="765.07"/>
      <point x="604.488" y="765.07" type="curve" smooth="yes"/>
      <point x="770.96" y="765.07"/>
      <point x="933.44" y="645.01"/>
      <point x="933.44" y="482.22" type="curve" smooth="yes"/>
      <point x="933.44" y="291.85"/>
      <point x="849.576" y="110.72"/>
    </contour>
    <contour>
      <point x="478.96" y="1114.19" type="line"/>
      <point x="1000.192" y="1532.27" type="line"/>
      <point x="927.696" y="1612.73" type="line"/>
      <point x="406.464" y="1196.44" type="line"/>
    </contour>
  </outline>
</glyph>
<glyph name="divide" format="1">
  <advance width="1172.208"/>
  <unicode hex="00F7"/>
  <outline>
    <contour>
      <point x="495.712" y="26.38" type="line"/>
      <point x="697.608" y="26.38" type="line"/>
      <point x="698.44" y="228.52" type="line"/>
      <point x="495.712" y="228.52" type="line"/>
    </contour>
    <contour>
      <point x="142.184" y="489.8" type="line"/>
      <point x="1042.136" y="489.8" type="line"/>
      <point x="1042.136" y="618.78" type="line"/>
      <point x="142.184" y="618.78" type="line"/>
    </contour>
    <contour>
      <point x="494.544" y="877.22" type="line"/>
      <point x="699.104" y="877.22" type="line"/>
      <point x="699.104" y="1078.36" type="line"/>
      <point x="494.544" y="1078.36" type="line"/>
    </contour>
  </outline>
</glyph>
<glyph name="oslash" format="1">
  <advance width="1244.184"/>
  <unicode hex="00F8"/>
  <outline>
    <contour>
      <point x="357.496" y="-210.79" type="line"/>
      <point x="262.16" y="-174.74" type="line"/>
      <point x="895.328" y="1252.33" type="line"/>
      <point x="992.496" y="1214.49" type="line"/>
    </contour>
    <component base="o"/>
  </outline>
</glyph>
<glyph name="thorn" format="1">
  <advance width="1239.16"/>
  <unicode hex="00FE"/>
  <outline>
    <contour>
      <point x="161.32" y="-432.22" type="line"/>
      <point x="161.32" y="1454.05" type="line"/>
      <point x="316.872" y="1454.05" type="line"/>
      <point x="316.704" y="874.72" type="line"/>
      <point x="405.016" y="991.68"/>
      <point x="524.192" y="1051.0"/>
      <point x="671.152" y="1051.0" type="curve" smooth="yes"/>
      <point x="994.648" y="1051.0"/>
      <point x="1140.992" y="811.58"/>
      <point x="1140.992" y="526.79" type="curve" smooth="yes"/>
      <point x="1140.992" y="238.21"/>
      <point x="984.824" y="-23.0"/>
      <point x="671.984" y="-23.0" type="curve" smooth="yes"/>
      <point x="521.016" y="-23.0"/>
      <point x="402.856" y="32.32"/>
      <point x="314.704" y="143.44" type="curve"/>
      <point x="315.536" y="-432.22" type="line"/>
    </contour>
    <contour>
      <point x="647.648" y="98.98" type="curve" smooth="yes"/>
      <point x="880.112" y="98.98"/>
      <point x="979.096" y="299.2"/>
      <point x="979.096" y="521.0" type="curve" smooth="yes"/>
      <point x="979.096" y="730.01"/>
      <point x="896.944" y="927.02"/>
      <point x="653.816" y="927.02" type="curve" smooth="yes"/>
      <point x="400.024" y="927.02"/>
      <point x="314.704" y="719.01"/>
      <point x="314.704" y="494.0" type="curve" smooth="yes"/>
      <point x="314.704" y="268.41"/>
      <point x="431.016" y="98.98"/>
    </contour>
  </outline>
</glyph>
<glyph name="Hbar" format="1">
  <advance width="1513.696"/>
  <unicode hex="0126"/>
  <outline>
    <contour>
      <point x="91.168" y="1198.77" type="line"/>
      <point x="89.336" y="1331.82" type="line"/>
      <point x="1426.192" y="1331.82" type="line"/>
      <point x="1426.192" y="1198.77" type="line"/>
    </contour>
    <component base="H"/>
  </outline>
</glyph>
<glyph name="lslash" format="1">
  <advance width="503.0"/>
  <unicode hex="0142"/>
  <outline>
    <contour>
      <point x="176.296" y="0.0" type="line"/>
      <point x="176.296" y="683.41" type="line"/>
      <point x="-1.328" y="583.41" type="line"/>
      <point x="-1.328" y="709.86" type="line"/>
      <point x="177.128" y="809.86" type="line"/>
      <point x="177.128" y="1497.01" type="line"/>
      <point x="328.024" y="1497.01" type="line"/>
      <point x="328.024" y="895.94" type="line"/>
      <point x="509.64" y="998.31" type="line"/>
      <point x="509.64" y="874.23" type="line"/>
      <point x="327.192" y="772.44" type="line"/>
      <point x="327.192" y="0.0" type="line"/>
    </contour>
  </outline>
</glyph>
<glyph name="Eng" format="1">
  <advance width="1542.384"/>
  <unicode hex="014A"/>
  <outline>
    <contour>
      <point x="520.544" y="-333.29" type="curve"/>
      <point x="537.888" y="-201.78" type="line"/>
      <point x="696.18528" y="-242.19243"/>
      <point x="814.233344" y="-263.54096"/>
      <point x="905.33664" y="-263.54096" type="curve" smooth="yes"/>
      <point x="1119.576" y="-263.54096"/>
      <point x="1172.512" y="-154.79797"/>
      <point x="1190.832" y="20.7" type="curve" smooth="yes"/>
      <point x="1192.664" y="31.44"/>
      <point x="1194.496" y="22.23122"/>
      <point x="1194.496" y="32.97122" type="curve"/>
      <point x="411.592" y="1112.99" type="line"/>
      <point x="350.048" y="1219.6" type="line"/>
      <point x="350.048" y="0.0" type="line"/>
      <point x="186.504" y="0.0" type="line"/>
      <point x="186.504" y="1456.0" type="line"/>
      <point x="372.056" y="1456.0" type="line"/>
      <point x="1125.792" y="386.62" type="line"/>
      <point x="1196.328" y="277.64" type="line"/>
      <point x="1196.328" y="1456.0" type="line"/>
      <point x="1356.712" y="1456.0" type="line"/>
      <point x="1356.712" y="155.25" type="line" smooth="yes"/>
      <point x="1356.712" y="-177.22"/>
      <point x="1269.48896" y="-383.5922"/>
      <point x="906.081024" y="-383.5922" type="curve" smooth="yes"/>
      <point x="803.390272" y="-383.5922"/>
      <point x="674.7648" y="-368.06211"/>
    </contour>
  </outline>
</glyph>
<glyph name="oe" format="1">
  <advance width="1963.192"/>
  <unicode hex="0153"/>
  <outline>
    <contour>
      <point x="1096.2" y="603.78" type="curve"/>
      <point x="1734.592" y="603.78" type="line"/>
      <point x="1734.592" y="614.52"/>
      <point x="1734.592" y="629.05"/>
      <point x="1732.76" y="639.79" type="curve" smooth="yes"/>
      <point x="1715.76" y="795.85"/>
      <point x="1611.6" y="927.23"/>
      <point x="1428.808" y="927.23" type="curve" smooth="yes"/>
      <point x="1235.352" y="927.23"/>
      <point x="1103.88" y="772.69"/>
    </contour>
    <contour>
      <point x="617.016" y="103.56" type="curve" smooth="yes"/>
      <point x="851.144" y="103.56"/>
      <point x="953.128" y="293.99"/>
      <point x="953.128" y="511.0" type="curve" smooth="yes"/>
      <point x="953.128" y="746.59"/>
      <point x="848.648" y="927.23"/>
      <point x="608.184" y="927.23" type="curve" smooth="yes"/>
      <point x="374.552" y="927.23"/>
      <point x="252.568" y="741.8"/>
      <point x="250.736" y="506.21" type="curve" smooth="yes"/>
      <point x="248.904" y="286.2"/>
      <point x="361.888" y="103.56"/>
    </contour>
    <contour>
      <point x="608.52" y="-22.0" type="curve" smooth="yes"/>
      <point x="267.024" y="-22.0"/>
      <point x="90.84" y="213.74"/>
      <point x="90.84" y="509.21" type="curve" smooth="yes"/>
      <point x="90.84" y="804.26"/>
      <point x="269.68" y="1052.0"/>
      <point x="619.008" y="1052.0" type="curve" smooth="yes"/>
      <point x="816.336" y="1052.0"/>
      <point x="946.168" y="954.89"/>
      <point x="1028.328" y="794.98" type="curve"/>
      <point x="1100.0" y="953.57"/>
      <point x="1237.312" y="1051.42"/>
      <point x="1418.984" y="1051.42" type="curve" smooth="yes"/>
      <point x="1712.984" y="1051.42"/>
      <point x="1866.328" y="835.79"/>
      <point x="1866.328" y="538.01" type="curve" smooth="yes"/>
      <point x="1866.328" y="500.07" type="line"/>
      <point x="1096.032" y="500.07" type="line"/>
      <point x="1095.2" y="502.02"/>
      <point x="1097.032" y="454.22"/>
      <point x="1096.2" y="455.38" type="curve" smooth="yes"/>
      <point x="1098.88" y="253.26"/>
      <point x="1249.848" y="103.56"/>
      <point x="1451.504" y="103.56" type="curve" smooth="yes"/>
      <point x="1688.296" y="103.56"/>
      <point x="1773.168" y="203.61"/>
      <point x="1773.168" y="203.61" type="curve"/>
      <point x="1822.68" y="87.1" type="line"/>
      <point x="1822.68" y="87.1"/>
      <point x="1727.472" y="-22.0"/>
      <point x="1439.16" y="-22.0" type="curve" smooth="yes"/>
      <point x="1255.176" y="-22.0"/>
      <point x="1085.008" y="77.27"/>
      <point x="1022.0" y="245.18" type="curve"/>
      <point x="956.0" y="70.32"/>
      <point x="800.496" y="-22.0"/>
    </contour>
  </outline>
</glyph>
<glyph name="caron" format="1">
  <advance width="699.0"/>
  <unicode hex="02C7"/>
  <outline>
    <contour>
      <point x="279.648" y="1178.65" type="line"/>
      <point x="56.944" y="1559.18" type="line"/>
      <point x="151.712" y="1559.18" type="line"/>
      <point x="354.992" y="1213.76" type="line"/>
      <point x="554.776" y="1559.18" type="line"/>
      <point x="641.224" y="1559.18" type="line"/>
      <point x="416.856" y="1178.65" type="line"/>
    </contour>
  </outline>
</glyph>
<glyph name="breve" format="1">
  <advance width="568.584"/>
  <unicode hex="02D8"/>
  <outline>
    <contour>
      <point x="287.208" y="1215.33" type="curve" smooth="yes"/>
      <point x="126.856" y="1215.33"/>
      <point x="44.0" y="1290.38"/>
      <point x="31.832" y="1456.0" type="curve"/>
      <point x="141.04" y="1456.0" type="line"/>
      <point x="147.208" y="1361.74"/>
      <point x="196.888" y="1324.05"/>
      <point x="287.208" y="1324.05" type="curve" smooth="yes"/>
      <point x="377.528" y="1324.05"/>
      <point x="419.544" y="1367.11"/>
      <point x="431.376" y="1456.0" type="curve"/>
      <point x="536.752" y="1456.0" type="line"/>
      <point x="524.584" y="1293.96"/>
      <point x="438.4" y="1215.33"/>
    </contour>
  </outline>
</glyph>
<glyph name="ogonek" format="1">
  <advance width="508.0"/>
  <unicode hex="02DB"/>
  <outline>
    <contour>
      <point x="51.648" y="-286.91" type="curve" smooth="yes"/>
      <point x="51.648" y="-190.66"/>
      <point x="147.528" y="-45.06"/>
      <point x="262.336" y="11.05" type="curve"/>
      <point x="342.704" y="-3.27" type="line"/>
      <point x="267.452688" y="-61.849284"/>
      <point x="151.629816" y="-200.36921"/>
      <point x="151.629816" y="-299.2797" type="curve" smooth="yes"/>
      <point x="151.629816" y="-354.22677"/>
      <point x="186.857256" y="-407.82397"/>
      <point x="321.171736" y="-407.82397" type="curve" smooth="yes"/>
      <point x="351.257008" y="-407.82397"/>
      <point x="376.801352" y="-413.97953"/>
      <point x="436.2" y="-398.27" type="curve"/>
      <point x="436.2" y="-474.62" type="line"/>
      <point x="406.738096" y="-487.84359"/>
      <point x="362.021672" y="-496.31786"/>
      <point x="311.630112" y="-496.31786" type="curve" smooth="yes"/>
      <point x="186.41604" y="-496.31786"/>
      <point x="51.648" y="-435.56403"/>
    </contour>
  </outline>
</glyph>
<glyph name="Omega" format="1">
  <advance width="1603.0"/>
  <unicode hex="03A9"/>
  <outline>
    <contour>
      <point x="108.48" y="0.0" type="line"/>
      <point x="103.784" y="127.98" type="line"/>
      <point x="453.912" y="127.77" type="line"/>
      <point x="256.112" y="266.19"/>
      <point x="118.976" y="485.87"/>
      <point x="118.976" y="769.83" type="curve" smooth="yes"/>
      <point x="118.976" y="1179.62"/>
      <point x="416.976" y="1444.2"/>
      <point x="814.312" y="1444.2" type="curve" smooth="yes"/>
      <point x="1226.648" y="1444.2"/>
      <point x="1484.152" y="1151.2"/>
      <point x="1484.152" y="766.99" type="curve" smooth="yes"/>
      <point x="1484.152" y="476.24"/>
      <point x="1316.36" y="261.56"/>
      <point x="1144.048" y="127.77" type="curve"/>
      <point x="1128.952" y="127.77"/>
      <point x="1503.744" y="127.98"/>
      <point x="1488.312" y="127.98" type="curve"/>
      <point x="1480.136" y="0.0" type="line"/>
      <point x="965.44" y="0.0" type="line"/>
      <point x="963.104" y="114.67" type="line"/>
      <point x="1169.76" y="252.04"/>
      <point x="1320.92" y="472.61"/>
      <point x="1320.92" y="747.83" type="curve" smooth="yes"/>
      <point x="1320.92" y="1049.42"/>
      <point x="1149.44" y="1314.22"/>
      <point x="808.648" y="1314.22" type="curve" smooth="yes"/>
      <point x="498.184" y="1314.22"/>
      <point x="283.208" y="1087.16"/>
      <point x="283.208" y="754.41" type="curve" smooth="yes"/>
      <point x="283.208" y="479.19"/>
      <point x="426.368" y="250.62"/>
      <point x="636.856" y="114.67" type="curve"/>
      <point x="640.024" y="0.0" type="line"/>
    </contour>
  </outline>
</glyph>
<glyph name="quoteleft" format="1">
  <advance width="479.728"/>
  <unicode hex="2018"/>
  <outline>
    <contour>
      <point x="354.736" y="891.27" type="line"/>
      <point x="245.04" y="891.27" type="line"/>
      <point x="97.528" y="1456.0" type="line"/>
      <point x="296.416" y="1456.0" type="line"/>
    </contour>
  </outline>
</glyph>
<glyph name="quotesinglbase" format="1">
  <advance width="528.44"/>
  <unicode hex="201A"/>
  <outline>
    <contour>
      <point x="119.192" y="-305.1" type="line"/>
      <point x="224.032" y="192.14" type="line"/>
      <point x="373.112" y="192.14" type="line"/>
      <point x="232.76" y="-305.1" type="line"/>
    </contour>
  </outline>
</glyph>
<glyph name="quotedblright" format="1">
  <advance width="1024.0"/>
  <unicode hex="201D"/>
  <outline>
    <contour>
      <point x="213.976" y="891.27" type="line"/>
      <point x="315.648" y="1456.0" type="line"/>
      <point x="482.384" y="1456.0" type="line"/>
      <point x="324.544" y="891.27" type="line"/>
    </contour>
    <contour>
      <point x="525.376" y="891.27" type="line"/>
      <point x="628.216" y="1456.0" type="line"/>
      <point x="795.616" y="1456.0" type="line"/>
      <point x="644.104" y="891.27" type="line"/>
    </contour>
  </outline>
</glyph>
<glyph name="dagger" format="1">
  <advance width="1022.0"/>
  <unicode hex="2020"/>
  <outline>
    <contour>
      <point x="440.136" y="114.95" type="line"/>
      <point x="440.136" y="943.02" type="line"/>
      <point x="114.136" y="943.02" type="line"/>
      <point x="114.136" y="1065.79" type="line"/>
      <point x="440.136" y="1065.79" type="line"/>
      <point x="440.136" y="1456.22" type="line"/>
      <point x="573.344" y="1456.22" type="line"/>
      <point x="573.344" y="1065.79" type="line"/>
      <point x="919.0" y="1065.79" type="line"/>
      <point x="919.0" y="943.02" type="line"/>
      <point x="555.024" y="943.02" type="line"/>
      <point x="555.024" y="114.95" type="line"/>
    </contour>
  </outline>
</glyph>
<glyph name="daggerdbl" format="1">
  <advance width="1037.92"/>
  <unicode hex="2021"/>
  <outline>
    <contour>
      <point x="455.352" y="-33.46" type="line"/>
      <point x="455.352" y="456.29" type="line"/>
      <point x="116.184" y="456.29" type="line"/>
      <point x="116.184" y="553.06" type="line"/>
      <point x="455.352" y="553.06" type="line"/>
      <point x="455.352" y="959.65" type="line"/>
      <point x="122.016" y="959.65" type="line"/>
      <point x="122.016" y="1061.63" type="line"/>
      <point x="455.352" y="1061.63" type="line"/>
      <point x="455.352" y="1456.0" type="line"/>
      <point x="579.08" y="1456.0" type="line"/>
      <point x="579.08" y="1061.63" type="line"/>
      <point x="923.568" y="1061.63" type="line"/>
      <point x="923.568" y="959.65" type="line"/>
      <point x="579.08" y="959.65" type="line"/>
      <point x="579.08" y="553.06" type="line"/>
      <point x="916.4" y="553.06" type="line"/>
      <point x="916.4" y="456.29" type="line"/>
      <point x="579.08" y="456.29" type="line"/>
      <point x="579.08" y="-33.46" type="line"/>
    </contour>
  </outline>
</glyph>
<glyph name="guilsinglleft" format="1">
  <advance width="663.872"/>
  <unicode hex="2039"/>
  <outline>
    <contour>
      <point x="404.84" y="172.53" type="line"/>
      <point x="138.0" y="541.0" type="line"/>
      <point x="410.84" y="912.05" type="line"/>
      <point x="552.544" y="912.05" type="line"/>
      <point x="299.72" y="541.79" type="line"/>
      <point x="544.544" y="172.53" type="line"/>
    </contour>
  </outline>
</glyph>
<glyph name="guilsinglright" format="1">
  <advance width="663.872"/>
  <unicode hex="203A"/>
  <outline>
    <contour>
      <point x="259.032" y="912.84" type="line"/>
      <point x="525.872" y="544.37" type="line"/>
      <point x="254.864" y="173.32" type="line"/>
      <point x="111.328" y="173.32" type="line"/>
      <point x="364.152" y="545.37" type="line"/>
      <point x="119.328" y="912.84" type="line"/>
    </contour>
  </outline>
</glyph>
<glyph name="trademark" format="1">
  <advance width="1869.0"/>
  <unicode hex="2122"/>
  <outline>
    <contour>
      <point x="821.16" y="698.49" type="line"/>
      <point x="821.16" y="1461.59" type="line"/>
      <point x="966.376" y="1461.59" type="line"/>
      <point x="1243.344" y="857.51" type="line"/>
      <point x="1534.8" y="1461.59" type="line"/>
      <point x="1669.024" y="1461.59" type="line"/>
      <point x="1669.024" y="698.49" type="line"/>
      <point x="1565.8" y="698.49" type="line"/>
      <point x="1565.8" y="1309.53" type="line"/>
      <point x="1275.528" y="698.49" type="line"/>
      <point x="1204.496" y="698.49" type="line"/>
      <point x="924.88" y="1310.27" type="line"/>
      <point x="924.88" y="698.49" type="line"/>
    </contour>
    <contour>
      <point x="328.976" y="698.49" type="line"/>
      <point x="328.976" y="1369.61" type="line"/>
      <point x="69.336" y="1369.61" type="line"/>
      <point x="69.336" y="1461.59" type="line"/>
      <point x="708.832" y="1461.59" type="line"/>
      <point x="708.832" y="1369.61" type="line"/>
      <point x="441.528" y="1369.61" type="line"/>
      <point x="441.528" y="698.49" type="line"/>
    </contour>
  </outline>
</glyph>
<glyph name="partialdiff" format="1">
  <advance width="1163.832"/>
  <unicode hex="2202"/>
  <outline>
    <contour>
      <point x="492.824" y="-24.0" type="curve" smooth="yes"/>
      <point x="879.664" y="-24.0"/>
      <point x="1074.992" y="421.32"/>
      <point x="1074.992" y="856.64" type="curve" smooth="yes"/>
      <point x="1074.992" y="1326.22"/>
      <point x="890.488" y="1538.59"/>
      <point x="591.48" y="1538.59" type="curve" smooth="yes"/>
      <point x="475.312" y="1538.59"/>
      <point x="365.136" y="1500.38"/>
      <point x="287.296" y="1449.91" type="curve"/>
      <point x="297.632" y="1328.03" type="line"/>
      <point x="378.944" y="1384.67"/>
      <point x="478.784" y="1414.03"/>
      <point x="566.32" y="1414.03" type="curve" smooth="yes"/>
      <point x="786.44" y="1414.03"/>
      <point x="918.088" y="1219.96"/>
      <point x="917.096" y="902.14" type="curve" smooth="yes"/>
      <point x="916.264" y="910.83"/>
      <point x="916.264" y="797.5"/>
      <point x="916.264" y="806.19" type="curve"/>
      <point x="876.608" y="881.72"/>
      <point x="777.944" y="1002.0"/>
      <point x="586.810688" y="1002.0" type="curve" smooth="yes"/>
      <point x="309.984" y="1002.0"/>
      <point x="88.64" y="747.21"/>
      <point x="88.64" y="418.05" type="curve" smooth="yes"/>
      <point x="88.64" y="168.42"/>
      <point x="225.48" y="-24.0"/>
    </contour>
    <contour>
      <point x="496.488" y="100.98" type="curve" smooth="yes"/>
      <point x="342.016" y="100.98"/>
      <point x="243.536" y="225.25"/>
      <point x="243.536" y="415.84" type="curve" smooth="yes"/>
      <point x="243.536" y="663.43"/>
      <point x="404.512" y="877.65"/>
      <point x="611.816" y="877.65" type="curve" smooth="yes"/>
      <point x="758.28" y="877.65"/>
      <point x="859.6" y="773.96"/>
      <point x="898.432" y="656.74" type="curve"/>
      <point x="866.752" y="366.97"/>
      <point x="744.256" y="100.98"/>
    </contour>
  </outline>
</glyph>
<glyph name="uni2206" format="1">
  <advance width="1314.496"/>
  <unicode hex="2206"/>
  <outline>
    <contour>
      <point x="40.832" y="0.0" type="line"/>
      <point x="1260.84" y="0.0" type="line"/>
      <point x="1260.84" y="76.15" type="line"/>
      <point x="702.88" y="1434.22" type="line"/>
      <point x="599.792" y="1434.22" type="line"/>
      <point x="40.832" y="76.15" type="line"/>
    </contour>
    <contour>
      <point x="196.12" y="110.39" type="line"/>
      <point x="177.536" y="65.35"/>
      <point x="676.408" y="1265.89"/>
      <point x="657.824" y="1221.85" type="curve"/>
      <point x="638.912" y="1266.26"/>
      <point x="1123.96" y="65.77"/>
      <point x="1105.048" y="110.39" type="curve"/>
    </contour>
  </outline>
</glyph>
<glyph name="notequal" format="1">
  <advance width="1345.36"/>
  <unicode hex="2260"/>
  <outline>
    <contour>
      <point x="454.368" y="47.74" type="line"/>
      <point x="343.648" y="64.21" type="line"/>
      <point x="474.968" y="329.06" type="line"/>
      <point x="165.496" y="329.06" type="line"/>
      <point x="165.496" y="439.04" type="line"/>
      <point x="531.16" y="439.04" type="line"/>
      <point x="684.624" y="736.49" type="line"/>
      <point x="165.496" y="736.49" type="line"/>
      <point x="165.496" y="847.47" type="line"/>
      <point x="737.648" y="847.47" type="line"/>
      <point x="874.808" y="1123.79" type="line"/>
      <point x="987.864" y="1106.53" type="line"/>
      <point x="857.208" y="847.47" type="line"/>
      <point x="1179.864" y="847.47" type="line"/>
      <point x="1179.864" y="736.49" type="line"/>
      <point x="805.184" y="736.49" type="line"/>
      <point x="648.72" y="439.04" type="line"/>
      <point x="1179.864" y="439.04" type="line"/>
      <point x="1179.864" y="329.06" type="line"/>
      <point x="595.528" y="329.06" type="line"/>
    </contour>
  </outline>
</glyph>
<glyph name="lessequal" format="1">
  <advance width="1349.168"/>
  <unicode hex="2264"/>
  <outline>
    <contour>
      <point x="1104.864" y="188.56" type="line"/>
      <point x="235.416" y="651.61" type="line"/>
      <point x="235.416" y="737.55" type="line"/>
      <point x="1110.696" y="1155.11" type="line"/>
      <point x="1110.696" y="1011.5" type="line"/>
      <point x="415.344" y="688.92" type="line"/>
      <point x="1104.864" y="331.75" type="line"/>
    </contour>
    <contour>
      <point x="203.768" y="0.0" type="line"/>
      <point x="203.768" y="113.35" type="line"/>
      <point x="1127.528" y="113.35" type="line"/>
      <point x="1127.528" y="0.0" type="line"/>
    </contour>
  </outline>
</glyph>
<glyph name="commaaccent" format="1">
  <advance width="540.0"/>
  <outline>
    <contour>
      <point x="130.464" y="-587.09" type="line"/>
      <point x="236.968" y="-129.26" type="line"/>
      <point x="409.536" y="-129.26" type="line"/>
      <point x="248.024" y="-587.09" type="line"/>
    </contour>
  </outline>
</glyph>
